<svg id="eCiLxqyfkzr1" xmlns="http://www.w3.org/2000/svg" xmlns:xlink="http://www.w3.org/1999/xlink" viewBox="0 0 230 221" shape-rendering="geometricPrecision" text-rendering="geometricPrecision" project-id="8c62cabcb58e41d6b85b2dd790ca29fe" export-id="9e280b2269cc479687150d4b83b63e0f" cached="false"><ellipse rx="5.880001" ry="7" transform="matrix(1.190476 0 0 1 193.355362 135.808096)" fill="#dd5b79" stroke="#dd5b79"/><path d="M143.483857,49.97284c-20.210113-17.271464-73.8715-36.064567-101.983353,52.821547" transform="translate(-34-28)" fill="rgba(221,91,121,0)" stroke="#dd5b79" stroke-width="14" stroke-linecap="round"/><path d="M85.629905,76.717923c-4.47711,25.342799-21.596788,50.168204-37.443128,64.060132" transform="translate(-34-28)" fill="rgba(221,91,121,0)" stroke="#dd5b79" stroke-width="14" stroke-linecap="round"/><path d="M62.22795,164.308096c17.94866,29.91443,47.332092,55.725037,75.554882,76.892137" transform="translate(-34-28)" fill="rgba(221,91,121,0)" stroke="#dd5b79" stroke-width="14" stroke-linecap="round"/><path d="M195.953405,207.100243c8.125964-8.843982,13.401132-15.789775,18.052937-22.733329" transform="translate(-34-28)" fill="rgba(221,91,121,0)" stroke="#dd5b79" stroke-width="14" stroke-linecap="round"/><path d="M170.54557,233.17671c-3.34352-10.03055-12.363327-19.814645-6.686275-30.422544c10.923307-20.410827,55.21996-81.844956,26.076464-94.006177-25.732341-10.737788-32.283881,68.88463-59.507828,82.305198" transform="translate(-33.999999-28)" fill="rgba(221,91,121,0)" stroke="#dd5b79" stroke-width="14" stroke-linecap="round"/><path d="M243.425943,133.55124c-29.367211,14.062089-15.636409-66.571037-55.496062-65.959296" transform="translate(-34-24.999999)" fill="rgba(221,91,121,0)" stroke="#dd5b79" stroke-width="14" stroke-linecap="round"/><path d="M100.00539,122.887156c14.417376-44.017698,41.074237-81.837898,87.92449-86.286866" transform="translate(-33.999999-28)" fill="rgba(221,91,121,0)" stroke="#dd5b79" stroke-width="14" stroke-linecap="round"/><path d="M243.425942,136.551241c32.535647-28.917751-6.620104-99.022487-55.496061-99.950951" transform="translate(-33.999999-28)" fill="rgba(221,91,121,0)" stroke="#dd5b79" stroke-width="14" stroke-linecap="round"/><path d="M187.929882,70.591944c-44.243705-.654764-57.251944,60.510991-61.656743,70.18611-17.095784,37.5508-46.080806,23.368134-33.780958,0" transform="translate(-34-27.999999)" fill="rgba(221,91,121,0)" stroke="#dd5b79" stroke-width="14" stroke-linecap="round"/><path d="" transform="translate(-34-28)" fill="rgba(221,91,121,0)" stroke="#dd5b79" stroke-width="14" stroke-linecap="round"/><path d="M100.005391,122.887156c-1.918603,4.58102-7.990387,18.705674-7.483721,17.742404" transform="translate(-34-28)" fill="rgba(221,91,121,0)" stroke="#dd5b79" stroke-width="14" stroke-linecap="round"/></svg>
