<svg width="82" height="87" viewBox="0 0 82 87" fill="none" xmlns="http://www.w3.org/2000/svg">
<path d="M30.1776 37.6713C32.0262 38.0744 33.2445 38.6658 33.2551 38.6711C33.3548 38.7234 33.4546 38.8386 33.5386 38.9066C33.817 39.1369 34.0901 39.362 34.3684 39.5923C34.715 39.8802 35.0616 40.1628 35.4082 40.4507C35.2139 40.3827 35.0196 40.3198 34.82 40.2675C34.6205 40.2152 34.4209 40.1628 34.2161 40.1209C34.0113 40.0791 33.8065 40.0424 33.6017 40.0163C33.3968 39.9901 33.1868 39.9639 32.9767 39.9534C32.0472 39.1945 31.1176 38.4303 30.1829 37.6713H30.1776Z" fill="#FAFAFA"/>
<path d="M33.2559 38.671C33.6497 38.8437 33.9333 38.9903 33.9386 38.9955C33.9806 39.0269 34.0331 39.0741 34.0699 39.1055C34.6948 39.6237 35.3197 40.1418 35.9447 40.6548C35.9027 40.6339 35.8554 40.6182 35.8134 40.6025C35.7714 40.5867 35.7241 40.5658 35.6769 40.5501C35.6296 40.5344 35.5876 40.5187 35.5403 40.4978C35.493 40.4768 35.451 40.4664 35.4038 40.4507C34.6843 39.8592 33.9701 39.2625 33.2506 38.671H33.2559Z" fill="#FAFAFA"/>
<path d="M33.9375 38.995C34.9668 39.5289 35.4027 39.8325 35.4185 39.843C35.4552 39.8692 35.4972 39.9058 35.5287 39.932C35.7808 40.1413 36.0329 40.3507 36.285 40.5601C36.5581 40.7851 36.8259 41.0102 37.099 41.2353C37.0044 41.1777 36.9152 41.1254 36.8206 41.073C36.7261 41.0207 36.6316 40.9683 36.5318 40.9212C36.432 40.8741 36.3375 40.827 36.2377 40.7799C36.1379 40.7328 36.0381 40.6909 35.9384 40.6491C35.8701 40.5915 35.7756 40.513 35.702 40.4554C35.6285 40.3978 35.534 40.3141 35.4605 40.2565C35.3869 40.1989 35.2872 40.1152 35.2136 40.0524C35.1401 39.9895 35.0403 39.9058 34.9616 39.8482C34.8828 39.7906 34.783 39.7017 34.7095 39.6389C34.636 39.576 34.5309 39.4871 34.4522 39.4242C34.3734 39.3614 34.2684 39.2725 34.1896 39.2096C34.1108 39.1468 34.0058 39.0579 33.927 38.9898L33.9375 38.995Z" fill="#FAFAFA"/>
<path d="M35.4186 39.8433C35.9805 40.3092 36.5372 40.775 37.0991 41.2356C37.0413 41.1885 36.9626 41.1205 36.8995 41.0734C36.8365 41.0262 36.7577 40.9582 36.7 40.9059C36.6422 40.8535 36.5582 40.7855 36.4952 40.7331C36.4321 40.6808 36.3481 40.6127 36.2851 40.5604C36.2221 40.5081 36.138 40.4348 36.0698 40.3824C36.0015 40.3301 35.9175 40.2568 35.8545 40.2045C35.7914 40.1521 35.7022 40.0788 35.6391 40.0213C35.5761 39.9637 35.4869 39.8957 35.4186 39.8381V39.8433Z" fill="#FAFAFA"/>
<path d="M30.1783 37.6713C31.1078 38.4302 32.0373 39.1944 32.9721 39.9534C32.7726 39.9377 32.573 39.9272 32.3734 39.922C32.1739 39.9168 31.9691 39.922 31.7695 39.922C31.5699 39.922 31.3651 39.9429 31.1603 39.9639C30.9555 39.9848 30.7507 40.0057 30.5459 40.0372C28.9756 40.2675 27.4684 40.817 26.0873 41.6074C24.7061 42.3978 23.4457 43.4289 22.3691 44.638C21.2925 45.8471 20.3945 47.2237 19.7381 48.7155C19.0816 50.2072 18.672 51.8037 18.567 53.442C18.5039 54.4522 18.5564 55.4258 18.7245 56.3365C18.8925 57.2473 19.1656 58.1161 19.5332 58.9065C19.9009 59.6969 20.3735 60.4297 20.9249 61.0735C21.4763 61.7173 22.117 62.2826 22.8313 62.7484C21.3503 61.7801 19.3127 60.571 17.9105 59.4927C17.4641 59.1473 16.8864 58.6657 16.4821 58.2732C16.0777 57.8806 15.605 57.3729 15.2742 56.9437C14.9433 56.5145 14.5495 55.9911 14.2974 55.5409C14.1766 55.3263 14.0033 55.0489 13.893 54.8238C13.6882 54.3998 13.4151 53.8293 13.2523 53.3844C13.0528 52.8139 12.8532 52.2224 12.6957 51.2698C12.5539 50.4375 12.5591 49.7833 12.5644 49.307C12.5644 49.2965 12.5749 48.4799 12.7744 47.4959C12.995 46.4281 13.2996 45.6796 13.3101 45.6482C13.3836 45.465 13.4781 45.219 13.5622 45.0411C13.7302 44.6851 13.956 44.2088 14.1609 43.8738C14.3657 43.5388 14.6387 43.0992 14.8698 42.7851C15.1009 42.4711 15.4055 42.0785 15.6628 41.8011C15.8571 41.5865 16.3823 41.0107 16.9337 40.5606C17.3118 40.2518 17.8895 39.8121 18.4934 39.4876C19.2339 39.0898 20.6098 38.3413 23.0623 37.7969C24.3122 37.5195 25.3363 37.4148 25.8247 37.3625C26.2133 37.3206 26.7385 37.2787 27.1271 37.2682C27.1481 37.2682 27.1691 37.2787 27.1901 37.284C27.2006 37.284 27.3161 37.3206 27.4632 37.3206C27.5682 37.3206 27.668 37.3101 27.773 37.3049C27.8676 37.3049 28.9441 37.3677 29.5796 37.5038C30.0102 37.598 30.1888 37.6556 30.1888 37.6556C30.2465 37.6975 30.32 37.7603 30.3726 37.8074C30.7927 38.1528 31.2128 38.4931 31.633 38.8385C32.0793 39.1997 32.5205 39.5661 32.9669 39.9272C32.0426 39.1683 31.113 38.4093 30.1888 37.6556L30.1783 37.6713Z" fill="#FAFAFA"/>
<path d="M33.2558 38.6711C32.0059 38.1215 31.0028 37.8545 30.5197 37.7446C30.4199 37.7237 30.2676 37.7237 30.1836 37.6661C30.0575 37.5824 29.9157 37.4463 29.8002 37.3521C29.5691 37.1636 29.254 36.9072 29.023 36.7187C28.7919 36.5303 28.4715 36.2686 28.2352 36.0749C27.9989 35.8812 27.6838 35.6248 27.4475 35.4311C27.2112 35.2374 26.8961 34.981 26.6597 34.7873C26.1451 34.3686 25.6357 33.9498 25.121 33.5258C24.9005 33.3427 24.6064 33.1019 24.3805 32.9239C24.2755 32.8349 24.1285 32.7198 24.0234 32.6308C24.2388 32.6465 24.4593 32.6622 24.6694 32.6936C24.8794 32.725 25.0948 32.7564 25.3048 32.7983C25.5149 32.8402 25.725 32.8873 25.9298 32.9396C26.1346 32.992 26.3394 33.0548 26.539 33.1228C28.7761 34.9705 31.0186 36.8234 33.2558 38.6711Z" fill="#FAFAFA"/>
<path d="M28.4615 12.8713L37.0479 20.9844C36.9586 20.8954 36.8641 20.8116 36.7696 20.7331C36.675 20.6546 36.5753 20.5709 36.4755 20.4923C36.3757 20.4138 36.2759 20.3406 36.1709 20.2673C36.0659 20.194 35.9608 20.126 35.8558 20.0579C35.3674 19.7491 34.837 19.4978 34.2803 19.2989C33.7236 19.1 33.146 18.964 32.542 18.875C31.9381 18.786 31.3184 18.7494 30.6882 18.7651C30.058 18.7808 29.4173 18.8436 28.7714 18.9587C27.9941 19.0948 27.2116 19.3042 26.4397 19.5764C25.6677 19.8485 24.9114 20.1888 24.1762 20.5918C23.441 20.9948 22.7373 21.4607 22.0703 21.9841C21.4034 22.5075 20.7732 23.0938 20.2007 23.7323C18.9299 25.1822 17.9058 26.742 17.076 28.3803C16.2463 30.0186 15.6056 31.7302 15.1119 33.4784C14.6183 35.2267 14.2559 37.0272 13.9881 38.8121C13.7203 40.597 13.5417 42.3976 13.3947 44.1405L3.72119 37.2104C3.88924 35.3994 4.09931 33.536 4.39865 31.6674C4.69799 29.7988 5.09186 27.9459 5.62753 26.1139C6.16319 24.2819 6.84065 22.5075 7.72292 20.7959C8.60519 19.0843 9.67652 17.4565 11.0104 15.9386C11.6091 15.2686 12.2656 14.651 12.964 14.1014C13.6625 13.5518 14.3977 13.0545 15.1592 12.6306C15.9207 12.2066 16.7084 11.8402 17.5067 11.5471C18.3049 11.2539 19.1137 11.0289 19.9224 10.8771C20.5894 10.7515 21.2511 10.673 21.9023 10.652C22.5535 10.6311 23.1942 10.652 23.8139 10.741C24.4335 10.83 25.0375 10.9608 25.6099 11.1597C26.1823 11.3586 26.7232 11.6099 27.2274 11.9239C27.3377 11.992 27.448 12.06 27.553 12.1333C27.658 12.2066 27.7631 12.2851 27.8628 12.3636C27.9626 12.4421 28.0624 12.5259 28.1622 12.6096C28.262 12.6934 28.3565 12.7823 28.451 12.8661L28.4615 12.8713Z" fill="#18181B"/>
<path d="M28.5971 79.4724L19.0129 73.8718C16.1035 72.1707 13.6038 69.8781 11.5136 67.172C9.42349 64.4659 7.79023 61.4249 6.52985 58.1273C5.26946 54.8297 4.4292 51.3752 3.96181 47.8211C3.49442 44.2671 3.4209 40.7183 3.72549 37.2114L13.399 44.1415C13.1469 47.5123 13.2677 50.9617 13.7561 54.3482C14.2497 57.7661 15.1215 61.1265 16.3609 64.2723C17.6002 67.418 19.2597 70.412 21.2869 72.9925C23.335 75.6044 25.7717 77.8184 28.5971 79.4724Z" fill="#18181B"/>
<path d="M12.5637 49.3177C12.5165 50.888 12.8421 52.0552 13.0154 52.6781C13.1362 53.1178 13.3567 53.6935 13.5458 54.1123C13.7453 54.5572 14.0552 55.1277 14.2968 55.5464C14.5488 55.9913 14.9532 56.5462 15.2736 56.9492C15.6097 57.3679 16.1033 57.8914 16.4814 58.2787C16.8596 58.666 17.4687 59.1476 17.9099 59.4983C18.1357 59.6815 18.4665 59.8856 18.7029 60.0531L13.2412 56.4781C12.5112 56.0018 11.8548 55.4208 11.2928 54.7508C10.7309 54.0809 10.253 53.3324 9.88016 52.5106C9.5073 51.6888 9.23422 50.7938 9.07667 49.8411C8.91912 48.8885 8.87185 47.8835 8.95063 46.8262C9.08192 45.1199 9.52831 43.4502 10.2268 41.8956C10.9252 40.341 11.8705 38.8964 12.9996 37.6297C14.1287 36.363 15.4469 35.2743 16.8858 34.4368C18.3247 33.5994 19.895 33.0131 21.5177 32.7514C21.7278 32.72 21.9431 32.6886 22.1532 32.6677C22.3632 32.6467 22.5733 32.631 22.7834 32.6206C22.9934 32.6101 23.2035 32.6049 23.4083 32.6101C23.6131 32.6153 23.8232 32.6206 24.028 32.6363C24.2433 32.8142 24.5374 33.0498 24.7527 33.2277C24.968 33.4057 25.2779 33.6569 25.5037 33.8401C25.7295 34.0233 26.0446 34.2798 26.2757 34.4682C26.5068 34.6567 26.8219 34.9184 27.0582 35.1068C27.2945 35.2952 27.6096 35.557 27.8459 35.7506C28.0822 35.9443 28.3973 36.2008 28.6337 36.3944C28.87 36.5881 29.1798 36.8446 29.4161 37.033C29.6525 37.2214 29.9571 37.4727 30.1881 37.6611C29.9518 37.5931 29.6525 37.5041 29.1536 37.4308C28.7019 37.3628 27.8932 37.3052 27.8197 37.3052C27.6884 37.3052 27.5518 37.3261 27.4205 37.3156C27.2998 37.3104 27.2 37.279 27.1947 37.279C27.1737 37.2738 27.1527 37.2581 27.1317 37.2633C26.7378 37.2738 26.2179 37.3261 25.8293 37.3575C25.0311 37.4256 24.112 37.5878 23.7654 37.6506C21.628 38.0275 19.3961 38.8597 17.9414 39.8228C17.6315 40.027 17.2219 40.3149 16.9383 40.5609C16.3291 41.0895 16.2294 41.1994 15.6674 41.8014C15.3471 42.1468 14.6539 43.0157 14.1707 43.8741C13.4933 45.0728 13.1992 45.9416 13.1099 46.2609C12.9996 46.6273 12.8526 47.1193 12.7896 47.4962C12.674 48.1505 12.6005 48.5797 12.5795 49.3072L12.5637 49.3177Z" fill="#FAFAFA"/>
<path d="M34.2475 41.8955C34.0479 42.0107 33.8484 42.1363 33.6541 42.2619C33.4597 42.3875 33.2707 42.5236 33.0816 42.6597C32.8926 42.7958 32.714 42.9371 32.5355 43.0889C32.3569 43.2407 32.1836 43.3873 32.0103 43.5443L22.9828 36.3786C23.1613 36.2164 23.3451 36.0541 23.529 35.9023C23.7128 35.7505 23.9071 35.5987 24.1014 35.4522C24.2957 35.3056 24.4953 35.1643 24.7001 35.0334C24.9049 34.9026 25.1097 34.7665 25.3198 34.6461C27.9981 36.8236 31.5692 39.7285 34.2475 41.906V41.8955Z" fill="#18181B"/>
<path d="M25.4103 34.5835L34.3328 41.8434L34.2488 41.8957L25.3158 34.6358L25.4103 34.5835Z" fill="#18181B"/>
<path d="M25.4932 34.6097L34.4157 41.8695L34.3317 41.8434L25.4092 34.5835L25.4932 34.6097Z" fill="#18181B"/>
<path d="M33.9377 38.9955C33.8274 38.9379 33.6804 38.8646 33.5649 38.8123C33.4703 38.7704 33.3338 38.7338 33.2498 38.671C32.9977 38.4721 32.6721 38.1946 32.4253 37.9905C32.2992 37.8858 32.1312 37.7445 32.0051 37.645C31.8791 37.5456 31.7058 37.399 31.5798 37.2944C31.3224 37.0798 30.9811 36.7971 30.7185 36.5825C30.4559 36.3679 30.1146 36.0853 29.8572 35.8706C29.5999 35.656 29.2533 35.3734 28.996 35.1588C28.7386 34.9442 28.4025 34.6668 28.1505 34.4574C27.8984 34.248 27.5728 33.9811 27.326 33.777C27.0791 33.5728 26.7693 33.3163 26.533 33.1227C26.5802 33.1384 26.6275 33.1541 26.6748 33.1698C26.722 33.1855 26.7693 33.2012 26.8165 33.2221C26.8638 33.2431 26.9111 33.2588 26.9531 33.2745C26.9951 33.2902 27.0424 33.3111 27.0896 33.3321C29.3741 35.2216 31.6533 37.1112 33.9377 39.0007V38.9955Z" fill="#FAFAFA"/>
<path d="M35.4199 39.8442C35.1888 39.6976 34.7057 39.3888 34.2435 39.1533C34.149 39.1062 34.0177 39.059 33.9389 38.9962C33.8129 38.8968 33.6501 38.7555 33.524 38.6508C31.3814 36.8764 29.2387 35.102 27.0908 33.3276C27.1959 33.3694 27.2956 33.4166 27.3954 33.4584C27.4952 33.5003 27.595 33.5526 27.6948 33.5998C27.7945 33.6469 27.8943 33.6992 27.9888 33.7515C28.0834 33.8039 28.1832 33.8615 28.2777 33.9138C30.6567 35.8871 33.0356 37.8604 35.4146 39.8389L35.4199 39.8442Z" fill="#FAFAFA"/>
<path d="M35.4188 39.8434C35.1615 39.6288 34.8149 39.341 34.5523 39.1264C34.2897 38.9117 33.9273 38.6082 33.6595 38.3883C33.3917 38.1685 33.0241 37.8597 32.751 37.6346C32.4779 37.4095 32.1103 37.1007 31.8319 36.8704C31.5536 36.6401 31.1913 36.3365 30.9129 36.1114C30.6346 35.8864 30.2775 35.588 30.0096 35.3629C29.7418 35.1379 29.39 34.85 29.1274 34.6302C28.8648 34.4103 28.5339 34.1381 28.2819 33.9288C30.6608 35.9021 33.0398 37.8754 35.4188 39.8539V39.8434Z" fill="#FAFAFA"/>
<path d="M36.3958 42.8012C36.2435 42.7018 36.0859 42.6076 35.9284 42.5186C35.7708 42.4296 35.608 42.3459 35.44 42.2673C35.2719 42.1888 35.1091 42.1156 34.9358 42.0527C34.7625 41.9899 34.5945 41.9271 34.4159 41.8695L25.4934 34.6097C25.6772 34.662 25.8558 34.7248 26.0291 34.7929C26.2024 34.8609 26.3757 34.9342 26.549 35.0127C26.7223 35.0912 26.8851 35.175 27.0479 35.2692C27.2107 35.3634 27.3735 35.4576 27.531 35.5571C30.4877 37.97 33.4391 40.3883 36.3905 42.8012H36.3958Z" fill="#18181B"/>
<path d="M30.178 37.6718C29.1329 36.8186 28.0931 35.9654 27.048 35.1123C26.0397 34.2853 25.0261 33.4582 24.0178 32.6365C26.0712 34.3167 28.1246 35.9968 30.178 37.677V37.6718Z" fill="#FAFAFA"/>
<path d="M36.8479 43.1256C36.8111 43.0995 36.7743 43.0681 36.7376 43.0419C36.7008 43.0157 36.664 42.9843 36.622 42.9581C36.58 42.932 36.5485 42.9058 36.5065 42.8796C36.4645 42.8534 36.4277 42.8273 36.391 42.8011C33.4343 40.3881 30.4829 37.9699 27.5315 35.5569C27.5735 35.5831 27.6103 35.6093 27.6523 35.6355C27.6943 35.6616 27.7311 35.6878 27.7678 35.7192C27.8046 35.7506 27.8466 35.7768 27.8834 35.803C27.9201 35.8291 27.9621 35.8605 27.9989 35.8867C30.9503 38.2997 33.8964 40.7127 36.8479 43.1256Z" fill="#18181B"/>
<path d="M27.8992 36.4569L36.7587 43.6697C36.7587 43.6697 36.7219 43.6435 36.7061 43.6278C36.6904 43.6121 36.6694 43.6016 36.6536 43.5859C36.6379 43.5702 36.6169 43.5598 36.6011 43.5441C36.5854 43.5284 36.5643 43.5179 36.5486 43.5022C36.3805 43.3713 36.2072 43.251 36.0287 43.1358C35.8501 43.0207 35.6663 42.916 35.4825 42.8165C35.2987 42.7171 35.1044 42.6281 34.9101 42.5496C34.7158 42.4711 34.5162 42.3925 34.3114 42.3297L25.3784 35.0856C25.5885 35.1484 25.7933 35.2269 25.9929 35.3054C26.1924 35.3839 26.392 35.4781 26.581 35.5776C26.7701 35.677 26.9592 35.787 27.143 35.9021C27.3268 36.0173 27.5053 36.1429 27.6786 36.2737C27.6944 36.2894 27.7154 36.2999 27.7311 36.3156C27.7469 36.3313 27.7679 36.3418 27.7837 36.3575C27.7994 36.3732 27.8204 36.3837 27.8362 36.3994C27.8519 36.4151 27.8729 36.4255 27.8887 36.4412L27.8992 36.4569Z" fill="#18181B"/>
<path d="M36.4642 40.5867C36.3487 40.4977 35.9916 40.2255 35.7133 40.0371C35.6292 39.9795 35.5084 39.9115 35.4244 39.8434C34.9833 39.4875 34.5526 39.1211 34.1168 38.76C33.8437 38.5349 33.4866 38.2365 33.2135 38.0115C33.0769 37.8963 32.8931 37.7445 32.7566 37.6346C32.4835 37.4043 32.1159 37.1007 31.8376 36.8704C31.5592 36.6401 31.1969 36.3365 30.9185 36.1114C30.6402 35.8864 30.2831 35.588 30.0153 35.3629C29.7474 35.1379 29.3956 34.85 29.133 34.6302C28.8704 34.4103 28.5396 34.1381 28.2875 33.9288C28.361 33.9706 28.4293 34.0125 28.4975 34.0596C28.5658 34.1067 28.6341 34.1486 28.7076 34.1957C28.7811 34.2428 28.8441 34.2899 28.9124 34.337C28.9807 34.3841 29.049 34.4365 29.112 34.4836C29.133 34.4993 29.1592 34.5202 29.1802 34.5359C29.2013 34.5516 29.2275 34.5726 29.2485 34.5883C29.2695 34.604 29.2958 34.6249 29.3168 34.6406C29.3378 34.6563 29.3588 34.6773 29.3851 34.693C31.8533 36.7448 34.3268 38.7966 36.7951 40.8484C36.6901 40.7594 36.5798 40.6757 36.4695 40.5919L36.4642 40.5867Z" fill="#FAFAFA"/>
<path d="M37.0882 43.3133C37.0882 43.3133 37.0462 43.2819 37.0304 43.2662C37.0147 43.2505 36.9884 43.2348 36.9727 43.2191C36.9569 43.2034 36.9307 43.1877 36.9149 43.172C36.8992 43.1563 36.8729 43.1406 36.8519 43.1249C33.9005 40.7119 30.9543 38.299 28.0029 35.886C28.0239 35.9017 28.0449 35.9174 28.0659 35.9331C28.087 35.9488 28.108 35.9645 28.129 35.9802C28.15 35.9959 28.171 36.0116 28.192 36.0273C28.213 36.043 28.234 36.0587 28.255 36.0744C30.9071 38.2466 34.4467 41.1359 37.0987 43.3081L37.0882 43.3133Z" fill="#18181B"/>
<path d="M21.9642 52.9974C21.9222 53.6935 21.9642 54.3583 22.0745 54.9811C22.1848 55.604 22.3738 56.2007 22.6259 56.7451C22.878 57.2894 23.1931 57.7919 23.5712 58.2368C23.9493 58.6817 24.3747 59.0743 24.8578 59.3988L15.3839 52.966C14.8903 52.631 14.4491 52.2279 14.0658 51.7673C13.6824 51.3067 13.3621 50.7885 13.11 50.2232C12.8579 49.6579 12.6688 49.0455 12.5638 48.3912C12.4588 47.737 12.422 47.046 12.4745 46.3237C12.5586 45.1251 12.8684 43.9579 13.3568 42.8639C13.8452 41.77 14.5069 40.7545 15.2999 39.8647C16.0929 38.9749 17.0224 38.2107 18.0307 37.6245C19.039 37.0382 20.1419 36.63 21.2815 36.452C21.4233 36.4311 21.5703 36.4101 21.7121 36.3996C21.8539 36.3892 21.9957 36.3735 22.1375 36.3682C22.2793 36.363 22.4211 36.3578 22.5629 36.363C22.7047 36.3682 22.8465 36.3682 22.983 36.3787L32.0105 43.5444C31.874 43.5339 31.7374 43.5287 31.6009 43.5234C31.4644 43.5182 31.3278 43.5234 31.1913 43.5234C31.0547 43.5234 30.9182 43.5339 30.7817 43.5496C30.6451 43.5653 30.5086 43.5758 30.3668 43.5967C29.2692 43.7537 28.2084 44.1358 27.2368 44.6906C26.2653 45.2455 25.3777 45.9678 24.6215 46.8157C23.8653 47.6637 23.2351 48.6373 22.7782 49.6789C22.3213 50.7205 22.0325 51.8458 21.9642 52.9974Z" fill="#18181B"/>
<path d="M25.9933 60.0113C25.8935 59.9695 25.7937 59.9276 25.6939 59.8805C25.5941 59.8334 25.4996 59.7863 25.4051 59.7339C25.3106 59.6816 25.216 59.6292 25.1267 59.5716C25.0375 59.5141 24.9429 59.4565 24.8589 59.3989L15.385 52.9661C15.4743 53.0289 15.5688 53.0864 15.6633 53.144C15.7579 53.2016 15.8524 53.2539 15.9522 53.3063C16.052 53.3586 16.1465 53.4057 16.2515 53.4581C16.3566 53.5104 16.4563 53.5523 16.5561 53.5942C19.7018 55.735 22.8528 57.8758 25.9985 60.0166L25.9933 60.0113Z" fill="#FAFAFA"/>
<path d="M22.9772 36.3728L32.0047 43.5385C31.385 44.1038 30.8231 44.7267 30.3242 45.3914C29.8253 46.0562 29.3894 46.768 29.027 47.506C28.6647 48.2441 28.3706 49.0187 28.1553 49.8091C27.9399 50.5995 27.8087 51.4108 27.7666 52.2221C27.7246 53.0334 27.7666 53.829 27.9032 54.5827C28.0397 55.3364 28.2498 56.0535 28.5439 56.7235C28.838 57.3935 29.2108 58.0163 29.652 58.5712C30.0931 59.126 30.613 59.6337 31.1907 60.0577L21.9374 53.5882C21.3387 53.1485 20.8135 52.6356 20.3566 52.0546C19.8997 51.4736 19.5269 50.835 19.2275 50.1388C18.9282 49.4427 18.7181 48.6994 18.5868 47.9143C18.4555 47.1292 18.4188 46.3074 18.4766 45.4595C18.5343 44.6115 18.6761 43.7688 18.9072 42.9418C19.1383 42.1148 19.4481 41.3087 19.8367 40.5341C20.2253 39.7594 20.6822 39.0161 21.2074 38.3147C21.7325 37.6134 22.3207 36.9643 22.9667 36.3676L22.9772 36.3728Z" fill="#FAFAFA"/>
<path d="M25.9933 60.0113C22.8476 57.8705 19.6966 55.7297 16.5509 53.5889C16.8187 53.6988 17.0971 53.7878 17.3859 53.8663C17.6747 53.9448 17.9688 53.9971 18.2734 54.0338C18.578 54.0704 18.8931 54.0914 19.2135 54.0861C19.5338 54.0809 19.8594 54.0599 20.1955 54.0181C20.3426 53.9971 20.4896 53.9762 20.6367 53.95C20.7837 53.9239 20.9307 53.8925 21.0778 53.8558C21.2248 53.8192 21.3719 53.7825 21.5189 53.7354C21.666 53.6883 21.8078 53.6464 21.9548 53.5941L31.2081 60.0636C31.0716 60.1107 30.9298 60.1578 30.788 60.1945C30.6462 60.2311 30.5097 60.273 30.3679 60.3044C30.2261 60.3358 30.0843 60.3672 29.9425 60.3934C29.8007 60.4195 29.6589 60.4405 29.5171 60.4562C29.1968 60.4928 28.8817 60.5137 28.5718 60.5137C28.262 60.5137 27.9627 60.4928 27.6686 60.4562C27.3745 60.4195 27.0856 60.362 26.8073 60.2887C26.529 60.2154 26.2611 60.1212 25.9986 60.0165L25.9933 60.0113Z" fill="#FAFAFA"/>
<path d="M31.6066 59.749L22.369 53.2586C21.7808 52.8451 21.2557 52.353 20.804 51.793C20.3524 51.2329 19.9795 50.6153 19.6854 49.9453C19.3914 49.2753 19.176 48.553 19.05 47.7888C18.924 47.0246 18.8819 46.229 18.9345 45.402C19.0027 44.3761 19.2076 43.3554 19.5384 42.3662C19.8693 41.3769 20.3209 40.4243 20.8828 39.5344C21.4447 38.6446 22.1064 37.8072 22.8627 37.0587C23.6189 36.3102 24.4644 35.6454 25.3782 35.0958L34.3112 42.34C33.4289 42.8582 32.6202 43.4863 31.9007 44.1981C31.1812 44.91 30.5458 45.7056 30.0154 46.5588C29.4849 47.4119 29.0596 48.3227 28.7497 49.2701C28.4399 50.2175 28.2508 51.1963 28.1983 52.1803C28.1563 52.9759 28.2036 53.7453 28.3348 54.4781C28.4661 55.2109 28.6815 55.9071 28.9755 56.5561C29.2696 57.2052 29.6372 57.8019 30.0784 58.341C30.5195 58.8801 31.0289 59.3564 31.6013 59.7595L31.6066 59.749Z" fill="#18181B"/>
<path d="M31.1971 60.0629C31.1971 60.0629 31.2233 60.0786 31.2338 60.0891C31.2443 60.0995 31.2601 60.1048 31.2706 60.1152C31.2811 60.1257 31.2968 60.1309 31.3073 60.1414C31.3178 60.1519 31.3336 60.1571 31.3441 60.1676L22.096 53.6981C22.096 53.6981 22.0698 53.6824 22.0593 53.6719C22.0488 53.6614 22.033 53.6562 22.0225 53.6457C22.012 53.6353 21.9962 53.63 21.9857 53.6196C21.9752 53.6091 21.9595 53.5986 21.949 53.5934C24.7271 55.5353 28.4505 58.0896 31.2023 60.0629H31.1971Z" fill="#18181B"/>
<path d="M33.4609 60.707C33.2929 60.6494 33.1248 60.5813 32.9673 60.5133C32.8097 60.4453 32.6469 60.3667 32.4946 60.2882C32.3423 60.2097 32.19 60.126 32.043 60.0318C31.8959 59.9375 31.7541 59.8486 31.6123 59.7491L22.3748 53.2587C22.5165 53.3581 22.6688 53.4576 22.8159 53.5466C22.9629 53.6355 23.1257 53.7245 23.2833 53.8083C23.4408 53.892 23.6036 53.9653 23.7717 54.0386C23.9397 54.1118 24.1078 54.1747 24.2811 54.2375C27.0329 56.1794 30.7091 58.7651 33.4609 60.7017V60.707Z" fill="#18181B"/>
<path d="M31.3485 60.1734C28.2659 58.0169 25.1832 55.8604 22.1005 53.7039C22.258 53.8138 22.4156 53.9132 22.5784 54.0127C22.7412 54.1121 22.9092 54.2011 23.0825 54.2901C23.2558 54.3791 23.4291 54.4576 23.6129 54.5361C23.7967 54.6146 23.9805 54.6827 24.1643 54.7455L33.3547 61.1888C33.1709 61.126 32.9923 61.0579 32.819 60.9847C32.6457 60.9114 32.4724 60.8276 32.3043 60.7439C32.1363 60.6601 31.9735 60.5659 31.8159 60.4717C31.6584 60.3775 31.5008 60.278 31.3485 60.1681V60.1734Z" fill="#18181B"/>
<path d="M24.254 54.7759L33.439 61.2245L33.355 61.1878L24.1647 54.7445L24.254 54.7759Z" fill="#18181B"/>
<path d="M24.3481 54.7241L33.5279 61.1674L33.4386 61.225L24.2535 54.7764L24.3481 54.7241Z" fill="#18181B"/>
<path d="M35.8816 58.8644C35.6978 59.0475 35.5087 59.2203 35.3144 59.3878C35.1201 59.5553 34.9205 59.7175 34.721 59.8693C34.5214 60.0211 34.3113 60.1729 34.1013 60.309C33.8912 60.4451 33.6811 60.5812 33.4606 60.7068L24.2808 54.2425C24.5066 54.1117 24.7271 53.9704 24.9477 53.8238C25.1683 53.6772 25.3836 53.5202 25.5937 53.358C25.8037 53.1957 26.0138 53.023 26.2134 52.8502C26.4129 52.6775 26.6177 52.4891 26.812 52.2954C29.837 54.4833 32.8566 56.6764 35.8816 58.8644Z" fill="#18181B"/>
<path d="M39.6615 50.6621C39.63 51.4053 39.5249 52.1538 39.3411 52.8866C39.1573 53.6194 38.9052 54.347 38.5849 55.0484C38.2646 55.7498 37.8707 56.425 37.419 57.0635C36.9674 57.7021 36.4527 58.3093 35.8803 58.8589C32.8554 56.671 29.8357 54.4778 26.8108 52.2899C27.4095 51.7089 27.9504 51.0704 28.4283 50.4004C28.9062 49.7304 29.3158 49.0185 29.6624 48.2858C30.009 47.553 30.2769 46.794 30.4764 46.0246C30.676 45.2551 30.7915 44.4805 30.8335 43.7006C30.8703 42.9521 30.8335 42.2245 30.718 41.5336C30.6025 40.8427 30.4239 40.1832 30.1718 39.5655C29.9197 38.9479 29.6046 38.3774 29.2213 37.854C28.8379 37.3305 28.402 36.8647 27.8979 36.4564L36.7573 43.6692C37.2457 44.067 37.6764 44.5223 38.0492 45.0248C38.4221 45.5273 38.7372 46.0874 38.984 46.6788C39.2308 47.2703 39.4147 47.9089 39.5302 48.5789C39.6457 49.2488 39.693 49.945 39.6615 50.6621Z" fill="#18181B"/>
<path d="M28.2458 36.0807C31.192 38.4937 34.1434 40.9014 37.0895 43.3144C37.5937 43.7279 38.0453 44.2042 38.4339 44.7276C38.8226 45.251 39.1482 45.832 39.4055 46.4549C39.6628 47.0778 39.8571 47.7373 39.9727 48.4334C40.0882 49.1296 40.1407 49.8572 40.1092 50.6056C40.0777 51.3541 39.9674 52.1654 39.7784 52.9349C39.5893 53.7043 39.3215 54.4633 38.9854 55.1961C38.6493 55.9288 38.2396 56.6355 37.767 57.3054C37.2943 57.9754 36.7534 58.6035 36.16 59.1845C35.9604 59.3834 35.7556 59.5719 35.5403 59.7551C35.325 59.9383 35.1149 60.111 34.8944 60.2785C34.6738 60.446 34.4532 60.603 34.2221 60.7496C33.9911 60.8961 33.7653 61.0427 33.5289 61.1735L24.3491 54.725C24.5959 54.5837 24.8375 54.4319 25.0738 54.2748C25.3102 54.1178 25.5465 53.9503 25.7776 53.7724C26.0086 53.5944 26.2344 53.4112 26.455 53.2228C26.6756 53.0343 26.8909 52.8302 27.101 52.6261C27.7259 52.0137 28.2931 51.3541 28.792 50.6475C29.2909 49.9409 29.7215 49.2029 30.0786 48.4334C30.4357 47.664 30.7193 46.8736 30.9294 46.0676C31.1395 45.2615 31.2602 44.4502 31.3023 43.6389C31.3443 42.8276 31.3023 42.1 31.1815 41.3777C31.0607 40.6554 30.8769 39.9697 30.6143 39.3259C30.3517 38.6821 30.0209 38.0854 29.627 37.541C29.2331 36.9967 28.771 36.5099 28.2511 36.0807H28.2458Z" fill="#18181B"/>
<path d="M29.4587 34.7549C32.3891 37.1888 35.3142 39.6228 38.2446 42.0514C38.817 42.5277 39.3264 43.0721 39.7676 43.674C40.2087 44.276 40.5763 44.9407 40.8704 45.6473C41.1645 46.354 41.3851 47.1182 41.5216 47.9085C41.6582 48.6989 41.7159 49.5364 41.6844 50.3895C41.6529 51.2898 41.5216 52.1901 41.3063 53.0799C41.091 53.9697 40.7811 54.8439 40.3925 55.6918C40.0039 56.5397 39.5313 57.3563 38.9851 58.1309C38.4389 58.9056 37.814 59.6332 37.126 60.3032C36.7374 60.68 36.333 61.0359 35.9181 61.3657C35.5033 61.6955 35.0621 61.999 34.6157 62.2765C34.1694 62.5539 33.7125 62.8051 33.2451 63.0249C32.7777 63.2448 32.305 63.4384 31.8271 63.6007C31.6223 63.6688 31.4175 63.7368 31.2075 63.7944C30.9974 63.8519 30.7926 63.9095 30.5825 63.9566C30.3724 64.0037 30.1624 64.0456 29.9523 64.0823C29.7423 64.1189 29.5322 64.1503 29.3221 64.1712C28.7024 64.2445 28.0985 64.2602 27.5103 64.2288C26.9221 64.1974 26.355 64.1189 25.8088 63.9933C25.2626 63.8677 24.7427 63.7002 24.2438 63.4856C23.7449 63.271 23.2723 63.0197 22.8259 62.7318L13.2365 56.456C13.6933 56.7544 14.1817 57.0161 14.6911 57.2307C15.2006 57.4453 15.7467 57.618 16.3086 57.7436C16.8706 57.8692 17.4587 57.9478 18.0679 57.9739C18.6771 58.0001 19.3021 57.9739 19.948 57.8954C20.1633 57.8692 20.3839 57.8326 20.6045 57.796C20.825 57.7593 21.0403 57.7122 21.2609 57.6599C21.4815 57.6075 21.6968 57.55 21.9121 57.4871C22.1274 57.4243 22.3427 57.3563 22.5528 57.2778C23.0517 57.105 23.5454 56.9009 24.0285 56.6601C24.5117 56.4194 24.9896 56.1577 25.4569 55.8645C25.9243 55.5714 26.376 55.2469 26.8171 54.9014C27.2582 54.556 27.6784 54.1791 28.0827 53.7813C28.8075 53.0747 29.4587 52.3105 30.0363 51.494C30.614 50.6774 31.1129 49.8242 31.5278 48.9344C31.9427 48.0446 32.2683 47.1286 32.5046 46.2022C32.7409 45.2757 32.8827 44.3336 32.93 43.3966C32.9772 42.4597 32.9247 41.6379 32.7882 40.8109C32.6516 39.9839 32.4363 39.1988 32.137 38.4608C31.8376 37.7227 31.4648 37.0423 31.0131 36.4194C30.5615 35.7965 30.0416 35.2365 29.4534 34.7497L29.4587 34.7549Z" fill="#18181B"/>
<path d="M36.464 40.5868C36.5936 40.6845 37.1607 41.1521 38.1655 41.9896C38.1655 41.9896 38.1235 41.9529 38.1025 41.9372C38.0815 41.9215 38.0605 41.9006 38.0395 41.8849C38.0185 41.8692 37.9975 41.8535 37.9712 41.8325C37.945 41.8116 37.9292 41.8011 37.903 41.7802C37.8399 41.7331 37.7717 41.686 37.7086 41.6389C37.6456 41.5918 37.5774 41.5447 37.5091 41.5028C37.4408 41.4609 37.3725 41.4138 37.3095 41.3719C37.2465 41.3301 37.173 41.2882 37.1047 41.2463C36.5428 40.7805 35.9861 40.3146 35.4242 39.854C35.8811 40.1576 36.0701 40.2884 36.464 40.592V40.5868Z" fill="#FAFAFA"/>
<path d="M36.7894 40.8423C36.8209 40.8632 36.8472 40.8894 36.8787 40.9156C37.3093 41.2715 37.7347 41.6274 38.1654 41.9833C38.1181 41.9415 38.0498 41.8891 38.0025 41.8473C37.9553 41.8054 37.887 41.753 37.8345 41.7112C37.782 41.6693 37.7137 41.6117 37.6664 41.5698C37.6192 41.528 37.5457 41.4704 37.4931 41.4285C37.2568 41.2349 37.0205 41.036 36.7894 40.8423Z" fill="#FAFAFA"/>
<path d="M36.7897 40.8423C36.8212 40.8685 36.8579 40.8946 36.8895 40.926L38.2444 42.0514C38.2444 42.0514 38.2286 42.0409 38.2234 42.0357C38.2181 42.0305 38.2076 42.0252 38.2024 42.02C38.1971 42.0148 38.1866 42.0095 38.1814 42.0043C38.1761 41.9991 38.1656 41.9938 38.1603 41.9886C38.1131 41.9467 38.0448 41.8944 37.9975 41.8525C37.9503 41.8106 37.882 41.7583 37.8295 41.7164C37.714 41.6222 37.6037 41.528 37.4881 41.4338C37.4356 41.3919 37.3674 41.3343 37.3148 41.2872C37.2623 41.2401 37.1941 41.1825 37.1363 41.1406C37.0785 41.0988 37.0102 41.036 36.9577 40.9941C36.9052 40.9522 36.8317 40.8894 36.7792 40.8475L36.7897 40.8423Z" fill="#FAFAFA"/>
<path d="M38.6074 22.8579C38.0665 22.3502 37.5308 21.8424 36.9899 21.3347C36.4437 20.8165 35.8923 20.2983 35.3462 19.7854C35.1676 19.6127 34.926 19.3876 34.7422 19.2201C34.5479 19.0369 34.2906 18.7961 34.1015 18.6129C33.9125 18.4297 33.6289 18.168 33.4293 17.9796C33.2298 17.7912 32.9462 17.5242 32.7414 17.3305C32.2792 16.8961 31.8171 16.4617 31.3602 16.0272C31.1606 15.8388 30.8928 15.5875 30.6932 15.3991C30.4937 15.2107 30.2469 14.9804 30.0578 14.8024C29.937 14.6244 29.8162 14.4517 29.6902 14.2842C29.5641 14.1167 29.4381 13.9492 29.3016 13.787C29.165 13.6247 29.0337 13.4677 28.8919 13.3159C28.7501 13.1641 28.6084 13.0175 28.4561 12.8762L37.0424 20.9893C37.1895 21.1253 37.3313 21.2719 37.4678 21.4185C37.6044 21.565 37.7409 21.722 37.8669 21.8791C37.993 22.0361 38.1243 22.1984 38.2451 22.3606C38.3658 22.5229 38.4866 22.6956 38.6074 22.8631V22.8579Z" fill="#FAFAFA"/>
<path d="M40.3395 25.7324C37.4984 23.0735 34.6573 20.4197 31.8162 17.7607C31.6744 17.5095 31.5378 17.2582 31.396 17.007C31.2543 16.7558 31.1125 16.5045 30.9654 16.2533C30.8184 16.002 30.6713 15.756 30.5243 15.5152C30.3772 15.2745 30.2197 15.0337 30.0569 14.7982C32.9085 17.4833 35.7601 20.1737 38.6118 22.8589C38.7693 23.0892 38.9216 23.3195 39.0686 23.555C39.2157 23.7905 39.3627 24.0313 39.5045 24.2721C39.6463 24.5129 39.7881 24.7589 39.9247 24.9997C40.0612 25.2404 40.203 25.4864 40.3395 25.7272V25.7324Z" fill="#FAFAFA"/>
<path d="M40.3389 25.7325C40.4072 25.8476 40.4702 25.968 40.5385 26.0831C40.6067 26.1983 40.675 26.3135 40.738 26.4286C40.8011 26.5438 40.8746 26.6589 40.9429 26.7688C41.0111 26.8787 41.0794 26.9939 41.1477 27.1038L32.6348 19.174C32.5665 19.0588 32.493 18.9437 32.4247 18.8285C32.3565 18.7134 32.2882 18.593 32.2199 18.4778C32.1517 18.3627 32.0834 18.2423 32.0151 18.1219C31.9468 18.0015 31.8786 17.8811 31.8103 17.7607C33.4593 19.3048 35.1083 20.8437 36.7573 22.3878C37.3613 22.9531 37.9599 23.5131 38.5639 24.0784C38.7949 24.293 39.026 24.5129 39.2623 24.7275C39.3306 24.7903 39.4199 24.874 39.4882 24.9369C39.5564 24.9997 39.6457 25.0834 39.7087 25.1462C39.8348 25.2666 40.0081 25.4236 40.1341 25.544C40.1919 25.6016 40.2864 25.6696 40.3337 25.7325H40.3389Z" fill="#FAFAFA"/>
<path d="M41.4372 27.5801C41.3269 27.4755 41.1799 27.3394 41.0696 27.2399C40.954 27.13 40.7965 26.9834 40.681 26.8788C40.5654 26.7741 40.3974 26.6118 40.2766 26.5019C40.1558 26.392 39.9877 26.2297 39.8617 26.1146C39.326 25.6173 38.7904 25.1148 38.2547 24.6176C36.4849 22.9688 34.7099 21.32 32.9401 19.6712C32.9138 19.6346 32.8928 19.5927 32.8666 19.5561C32.8403 19.5195 32.8193 19.4776 32.793 19.4357C32.7668 19.3938 32.7458 19.3572 32.7195 19.3153C32.6933 19.2734 32.6723 19.2316 32.646 19.1897L41.1589 27.1195C41.1851 27.1614 41.2061 27.2033 41.2324 27.2399C41.2586 27.2766 41.2796 27.3184 41.3059 27.3603C41.3322 27.4022 41.3532 27.4388 41.3794 27.4755C41.4057 27.5121 41.4267 27.5487 41.4529 27.5906L41.4372 27.5801Z" fill="#FAFAFA"/>
<path d="M31.3856 10.1606L39.846 18.4098C40.2083 18.7657 40.5497 19.1426 40.8648 19.5299C41.1799 19.9172 41.474 20.3255 41.7523 20.739C42.0306 21.1525 42.2932 21.5712 42.5453 21.9847C42.7974 22.3982 43.0389 22.817 43.2753 23.2253C43.3593 23.3666 43.4381 23.5079 43.5168 23.644C43.5956 23.7801 43.6744 23.9162 43.7532 24.0523C43.8319 24.1884 43.9107 24.3192 43.9895 24.4448C44.0683 24.5705 44.147 24.7013 44.2258 24.8269L35.8495 16.7715C35.7707 16.6406 35.6919 16.5098 35.6132 16.3789C35.5344 16.248 35.4556 16.112 35.3716 15.9706C35.2876 15.8293 35.2088 15.6932 35.13 15.5519C35.0512 15.4106 34.9672 15.264 34.8832 15.1227C34.6416 14.7039 34.4 14.2747 34.1427 13.8455C33.8854 13.4163 33.6228 12.9871 33.3392 12.5632C33.0556 12.1392 32.7563 11.7257 32.4359 11.3226C32.1156 10.9196 31.769 10.5375 31.3961 10.1711L31.3856 10.1606Z" fill="#18181B"/>
<path d="M35.8444 16.7709L44.2207 24.8263C44.2785 24.9205 44.331 25.0043 44.3835 25.088C44.436 25.1718 44.4833 25.2451 44.5253 25.3131C44.5673 25.3811 44.6146 25.444 44.6566 25.5015C44.6986 25.5591 44.7353 25.6167 44.7721 25.6638L36.4063 17.6293C36.3695 17.5769 36.3275 17.5194 36.2855 17.4618C36.2435 17.4042 36.2015 17.3362 36.1542 17.2629C36.1069 17.1896 36.0597 17.1163 36.0072 17.0326C35.9546 16.9488 35.9021 16.8598 35.8444 16.7656V16.7709Z" fill="#18181B"/>
<path d="M41.4383 27.5798C41.5433 27.742 41.6431 27.8886 41.7429 28.0352C41.8426 28.1817 41.9477 28.3126 42.0475 28.433C42.1472 28.5534 42.247 28.6737 42.3468 28.7784C42.4466 28.8831 42.5411 28.9826 42.6409 29.0715L34.1595 21.1993C34.0598 21.1051 33.96 21.0056 33.8602 20.8957C33.7604 20.7858 33.6554 20.6654 33.5556 20.5398C33.4558 20.4141 33.3508 20.2728 33.2458 20.1315C33.1407 19.9902 33.0357 19.8279 32.9307 19.6656C34.7005 21.3144 36.4755 22.9632 38.2453 24.612C38.781 25.1092 39.3166 25.6117 39.8523 26.109C39.9783 26.2241 40.1411 26.3812 40.2672 26.4963C40.3302 26.5539 40.409 26.6324 40.472 26.6847C40.5928 26.7947 40.7503 26.9464 40.8711 27.0564C40.9919 27.1663 41.1389 27.3024 41.2492 27.4071C41.3017 27.4594 41.3805 27.517 41.4278 27.5746L41.4383 27.5798Z" fill="#FAFAFA"/>
<path d="M42.6407 29.0713L34.1593 21.199C34.3379 21.3665 34.5164 21.5026 34.6897 21.6125C34.863 21.7224 35.0363 21.8114 35.2096 21.8742C35.3829 21.9371 35.551 21.9737 35.719 21.9894C35.8871 22.0051 36.0551 21.9999 36.2179 21.9685C37.0792 21.8219 37.9037 21.0996 38.7125 20.0527C39.5212 19.0059 40.3142 17.6345 41.1229 16.1794C41.9317 14.7243 42.7509 13.2011 43.6175 11.835C44.484 10.4689 45.3925 9.27024 46.3798 8.46417L54.2992 16.9593C53.3539 17.7183 52.4874 18.8646 51.6682 20.1679C50.8489 21.4712 50.0717 22.9316 49.3049 24.3186C48.5382 25.7057 47.7872 27.0195 47.0205 28.014C46.2538 29.0085 45.466 29.6942 44.631 29.825C44.4735 29.8512 44.3107 29.8564 44.1479 29.8407C43.9851 29.825 43.8223 29.7831 43.6542 29.7256C43.4862 29.668 43.3234 29.579 43.1501 29.4691C42.9768 29.3592 42.8087 29.2231 42.6354 29.0608L42.6407 29.0713Z" fill="#18181B"/>
<path d="M36.7894 40.8432C35.7076 39.9534 34.6363 39.0531 33.5597 38.158C33.2708 37.9172 32.8875 37.6032 32.6039 37.3624C32.4621 37.242 32.2678 37.085 32.126 36.9646C31.8424 36.7291 31.4643 36.415 31.1807 36.1795C30.8971 35.9439 30.5347 35.6456 30.2617 35.4153C29.9886 35.185 29.642 34.9023 29.3794 34.6825C31.8477 36.7343 34.3212 38.7861 36.7894 40.8379V40.8432Z" fill="#FAFAFA"/>
<path d="M36.8892 40.9269C36.8577 40.9007 36.8209 40.8746 36.7894 40.8432C36.6581 40.7333 36.4796 40.5867 36.3483 40.4768C36.0752 40.2517 35.7128 39.9481 35.445 39.723C35.1772 39.498 34.7938 39.1787 34.5102 38.9484C34.2266 38.7181 33.8433 38.3936 33.5597 38.158C33.2761 37.9225 32.8875 37.6032 32.6039 37.3624C32.3203 37.1216 31.9369 36.8076 31.6533 36.572C31.3698 36.3365 30.9969 36.0277 30.7186 35.7974C30.4402 35.5671 30.0831 35.274 29.8153 35.0437C29.684 34.9337 29.5107 34.7872 29.3794 34.6825C29.3846 34.6877 29.3951 34.693 29.4004 34.6982C29.4057 34.7034 29.4162 34.7087 29.4214 34.7139C29.4267 34.7191 29.4372 34.7244 29.4424 34.7296C29.4477 34.7348 29.4582 34.7401 29.4634 34.7453C31.6901 36.5982 34.6625 39.0635 36.8944 40.9164L36.8892 40.9269Z" fill="#FAFAFA"/>
<path d="M21.2759 36.452C21.4177 36.4311 21.5647 36.4101 21.7065 36.3996C21.8483 36.3892 21.9901 36.3735 22.1319 36.3682C22.2737 36.363 22.4155 36.3578 22.5573 36.363C22.6991 36.3682 22.8409 36.3682 22.9774 36.3787C22.3315 36.9754 21.738 37.6297 21.2181 38.3258C20.6982 39.022 20.2308 39.7705 19.8475 40.5451C19.4641 41.3198 19.149 42.1259 18.9179 42.9529C18.6869 43.7799 18.5398 44.6226 18.4873 45.4705C18.4348 46.3185 18.4715 47.1403 18.5976 47.9254C18.7236 48.7105 18.9389 49.4538 19.2383 50.1499C19.5376 50.8461 19.9157 51.4899 20.3674 52.0657C20.819 52.6414 21.3494 53.1596 21.9481 53.5993C21.8011 53.6516 21.6593 53.6987 21.5122 53.7406C21.3652 53.7825 21.2181 53.8244 21.0711 53.861C20.924 53.8976 20.777 53.929 20.6299 53.9552C20.4829 53.9814 20.3359 54.0076 20.1888 54.0233C19.0282 54.1751 17.9359 54.0704 16.9643 53.7458C15.9928 53.4213 15.142 52.8927 14.4436 52.1913C13.7451 51.4899 13.2094 50.6263 12.8681 49.6318C12.5267 48.6372 12.3797 47.5276 12.4637 46.329C12.5477 45.1303 12.8576 43.9631 13.346 42.8691C13.8344 41.7752 14.4961 40.7597 15.2891 39.8699C16.0821 38.9801 17.0116 38.2159 18.0199 37.6297C19.0282 37.0435 20.131 36.6352 21.2706 36.4572L21.2759 36.452Z" fill="#FAFAFA"/>
<path d="M25.3785 35.0908C25.5886 35.1536 25.7934 35.2321 25.993 35.3106C26.1925 35.3892 26.3921 35.4834 26.5812 35.5828C26.7702 35.6823 26.9593 35.7922 27.1431 35.9073C27.3269 36.0225 27.5055 36.1481 27.6788 36.279C28.2144 36.682 28.6871 37.1531 29.0914 37.6817C29.4958 38.2104 29.8424 38.7966 30.1102 39.43C30.3781 40.0633 30.5776 40.7438 30.6984 41.4556C30.8192 42.1675 30.8612 42.9212 30.8245 43.6959C30.7877 44.4705 30.6669 45.2504 30.4674 46.0199C30.2678 46.7893 30 47.5482 29.6534 48.281C29.3068 49.0138 28.8971 49.7257 28.4192 50.3957C27.9413 51.0656 27.4004 51.7042 26.8017 52.2852C26.6074 52.4789 26.4079 52.6621 26.2031 52.84C25.9982 53.018 25.7934 53.1855 25.5834 53.3478C25.3733 53.51 25.158 53.667 24.9374 53.8136C24.7168 53.9602 24.4963 54.1015 24.2705 54.2323C23.3829 53.9235 22.5847 53.4681 21.8967 52.9029C21.2088 52.3376 20.6258 51.6571 20.1637 50.8824C19.7016 50.1078 19.3602 49.2546 19.1501 48.3281C18.9401 47.4017 18.8613 46.4177 18.9243 45.3917C18.9873 44.3658 19.1974 43.3452 19.5283 42.3559C19.8591 41.3666 20.3107 40.414 20.8727 39.5242C21.4346 38.6344 22.0963 37.7969 22.8525 37.0484C23.6088 36.2999 24.4543 35.6352 25.368 35.0856L25.3785 35.0908Z" fill="#18181B"/>
<path d="M66.2823 8.03615L73.456 16.7982C73.2144 16.5051 72.9623 16.2225 72.6997 15.9608C72.4371 15.699 72.1536 15.4426 71.8595 15.207C71.5654 14.9715 71.2608 14.7464 70.9404 14.5423C70.6201 14.3382 70.284 14.1445 69.9321 13.9718C69.3702 13.6943 68.7768 13.4693 68.1571 13.2965C67.5374 13.1238 66.8967 13.0034 66.2402 12.9301C65.5838 12.8569 64.9168 12.8359 64.2394 12.8621C63.5619 12.8883 62.8792 12.9616 62.1965 13.0819C61.4823 13.2076 60.7681 13.3855 60.0644 13.6158C59.3606 13.8461 58.6727 14.1235 58.0005 14.4481C57.3283 14.7726 56.6823 15.1495 56.0574 15.5734C55.4324 15.9974 54.8495 16.4632 54.2981 16.9814L46.3787 8.48629C46.9563 7.94194 47.5708 7.44469 48.222 6.99978C48.8732 6.55487 49.5506 6.15183 50.2491 5.80638C50.9476 5.46092 51.6723 5.15733 52.4023 4.91132C53.1322 4.66532 53.878 4.47165 54.6237 4.33033C55.3694 4.189 56.0416 4.11049 56.7453 4.07385C57.4491 4.03721 58.1475 4.05291 58.825 4.11572C59.5024 4.17853 60.1694 4.29892 60.8101 4.47165C61.4508 4.64438 62.0652 4.86945 62.6481 5.1521C63.0105 5.32483 63.3571 5.51849 63.6932 5.72786C64.0293 5.93723 64.3444 6.1623 64.6438 6.40831C64.9431 6.65432 65.2319 6.9108 65.5103 7.18297C65.7886 7.45515 66.0459 7.74304 66.2928 8.04662L66.2823 8.03615Z" fill="#18181B"/>
<path d="M60.5741 31.0869L68.1679 38.8649C68.0577 38.7498 67.9421 38.6399 67.8266 38.5352C67.7111 38.4305 67.5903 38.3206 67.4695 38.2211C67.3487 38.1217 67.2227 38.017 67.0966 37.9228C66.9706 37.8286 66.8393 37.7291 66.708 37.6401C66.3194 37.368 65.9045 37.122 65.4791 36.9073C65.0537 36.6927 64.6074 36.5043 64.1557 36.3473C63.7041 36.1903 63.2314 36.0646 62.7535 35.9704C62.2756 35.8762 61.7925 35.8134 61.2988 35.782C61.0835 35.7663 60.8682 35.7558 60.6529 35.7558C60.4376 35.7558 60.217 35.7558 59.9964 35.7663C59.7759 35.7768 59.5606 35.7925 59.34 35.8134C59.1194 35.8343 58.8989 35.8605 58.6783 35.8919C56.9873 36.1432 55.3803 36.7137 53.9098 37.5407C52.4394 38.3677 51.1212 39.4407 49.9974 40.6917C48.8735 41.9427 47.9545 43.3768 47.3033 44.9157C46.6521 46.4546 46.2582 48.1138 46.2057 49.8045C46.1742 50.7309 46.2477 51.626 46.4105 52.4739C46.5733 53.3219 46.8307 54.1332 47.172 54.8869C47.5134 55.6406 47.9387 56.342 48.4324 56.9806C48.926 57.6192 49.5037 58.1949 50.1392 58.6974L41.6211 51.9714C40.9646 51.4532 40.3764 50.8618 39.867 50.197C39.3576 49.5323 38.927 48.81 38.5804 48.0248C38.2338 47.2397 37.9764 46.4022 37.8136 45.5176C37.6508 44.6331 37.5878 43.7066 37.6298 42.7383C37.7034 40.9743 38.1235 39.247 38.822 37.6297C39.5204 36.0123 40.4867 34.5153 41.6683 33.2015C42.8499 31.8877 44.2364 30.7519 45.7646 29.8726C47.2928 28.9932 48.9786 28.3756 50.7326 28.0982C50.9637 28.0615 51.1895 28.0301 51.4206 28.0039C51.6516 27.9778 51.8775 27.9621 52.1033 27.9464C52.3291 27.9307 52.5602 27.9307 52.7807 27.9307C53.0013 27.9307 53.2324 27.9359 53.4529 27.9516C53.9623 27.9778 54.4717 28.0353 54.9654 28.1296C55.459 28.2238 55.9474 28.3494 56.4201 28.5064C56.8927 28.6635 57.3496 28.8519 57.7908 29.0717C58.2319 29.2916 58.6573 29.5428 59.0617 29.8255C59.1982 29.9197 59.3295 30.0139 59.4608 30.1133C59.5921 30.2128 59.7181 30.3175 59.8441 30.4222C59.9702 30.5268 60.091 30.6368 60.2118 30.7467C60.3325 30.8566 60.4481 30.9717 60.5636 31.0869H60.5741Z" fill="#FAFAFA"/>
<path d="M62.7543 37.7762C62.539 37.8966 62.3289 38.0274 62.1241 38.1583C61.9193 38.2891 61.7198 38.4305 61.5202 38.5718C61.3206 38.7131 61.1316 38.8649 60.9425 39.0167C60.7535 39.1685 60.5697 39.3255 60.3911 39.4878L52.4769 31.8249C52.666 31.6521 52.855 31.4899 53.0546 31.3276C53.2542 31.1654 53.4537 31.0083 53.6585 30.8565C53.8634 30.7048 54.0734 30.5582 54.2887 30.4169C54.504 30.2756 54.7246 30.1395 54.9452 30.0086C57.2874 32.3378 60.4069 35.4417 62.7491 37.771L62.7543 37.7762Z" fill="#18181B"/>
<path d="M55.0497 29.9551L62.8484 37.7227L62.7538 37.775L54.95 30.0127L55.0497 29.9551Z" fill="#18181B"/>
<path d="M55.1447 29.9865L62.9381 37.7488L62.8488 37.7227L55.0502 29.9551L55.1447 29.9865Z" fill="#18181B"/>
<path d="M65.6209 39.0328C65.4161 38.8915 65.2113 38.7554 64.9959 38.6298C64.7806 38.5042 64.5653 38.389 64.3395 38.2843C64.1137 38.1796 63.8878 38.0802 63.6515 37.9912C63.4152 37.9022 63.1841 37.8237 62.9426 37.7557L55.1492 29.9881C55.4012 30.0561 55.6428 30.1347 55.8844 30.2236C56.126 30.3126 56.3623 30.4121 56.5934 30.522C56.8244 30.6319 57.0503 30.7471 57.2761 30.8779C57.5019 31.0088 57.712 31.1449 57.922 31.2914C58.2056 31.5741 58.5785 31.9509 58.8621 32.2388C59.1456 32.5267 59.55 32.9297 59.8494 33.2281C60.1487 33.5264 60.5531 33.9399 60.8577 34.2435C61.1623 34.5471 61.5666 34.9554 61.8712 35.2642C62.1758 35.573 62.5697 35.9708 62.869 36.2692C63.1684 36.5675 63.5465 36.9496 63.8406 37.2427C64.1347 37.5358 64.4865 37.8918 64.7649 38.1692C65.0222 38.4309 65.3688 38.7763 65.6261 39.0328H65.6209Z" fill="#18181B"/>
<path d="M49.8655 49.3165C49.8497 49.9499 49.897 50.557 50.0125 51.138C50.1281 51.719 50.2961 52.2686 50.5272 52.7816C50.7583 53.2945 51.0419 53.7761 51.3727 54.2158C51.7036 54.6554 52.0869 55.0532 52.5123 55.3987L44.1202 48.5052C43.6843 48.1441 43.2905 47.7358 42.9491 47.2804C42.6078 46.825 42.3189 46.3278 42.0879 45.7939C41.8568 45.26 41.6835 44.6895 41.5732 44.0823C41.4629 43.4751 41.4157 42.847 41.4419 42.1875C41.4892 40.947 41.778 39.7379 42.2664 38.6021C42.7548 37.4663 43.4323 36.4142 44.262 35.4877C45.0918 34.5613 46.0686 33.7657 47.1399 33.1533C48.2112 32.5409 49.3981 32.1116 50.6322 31.918C50.7898 31.8918 50.9421 31.8761 51.0944 31.8604C51.2467 31.8447 51.4042 31.8342 51.5565 31.8238C51.7088 31.8133 51.8664 31.8133 52.0187 31.8133C52.1709 31.8133 52.3232 31.8185 52.4755 31.829L60.3897 39.4919C60.2427 39.4814 60.0956 39.4762 59.9486 39.471C59.8015 39.4657 59.6545 39.471 59.5074 39.471C59.3604 39.471 59.2134 39.4867 59.0611 39.4971C58.9088 39.5076 58.7617 39.5285 58.6147 39.5495C57.4278 39.717 56.2987 40.12 55.2694 40.6958C54.2401 41.2715 53.3053 42.0253 52.5176 42.9046C51.7298 43.784 51.0839 44.7889 50.627 45.8724C50.1701 46.9559 49.9023 48.1179 49.8655 49.3061V49.3165Z" fill="#18181B"/>
<path d="M66.7083 39.9278C66.6243 39.8441 66.5403 39.7656 66.451 39.6871C66.3617 39.6085 66.2724 39.53 66.1831 39.4567C66.0939 39.3835 65.9993 39.3102 65.9048 39.2369C65.8103 39.1636 65.7158 39.0956 65.616 39.0275C63.0479 36.4471 60.4852 33.8666 57.9171 31.2861C58.0169 31.3542 58.1167 31.4275 58.2112 31.5007C58.3057 31.574 58.4055 31.6473 58.4948 31.7258C58.5841 31.8043 58.6786 31.8828 58.7679 31.9613C58.8571 32.0399 58.9464 32.1236 59.0305 32.2074C61.5827 34.7826 64.1403 37.3526 66.6926 39.9278H66.7083Z" fill="#18181B"/>
<path d="M58.7523 32.6729C58.9939 32.9137 59.3142 33.2382 59.5558 33.479C59.6766 33.5994 59.8342 33.7564 59.9549 33.8768C60.1913 34.1123 60.5116 34.4316 60.7479 34.6724C61.3939 35.3214 62.0451 35.9705 62.691 36.6195C62.9221 36.8498 63.2267 37.1534 63.4525 37.3837C63.568 37.4989 63.7203 37.6506 63.8306 37.7658C64.0564 37.9909 64.3558 38.2945 64.5816 38.5195C64.8074 38.7446 65.1015 39.0429 65.3273 39.268C65.4376 39.3779 65.5847 39.5297 65.6949 39.6397C65.9155 39.8595 66.2096 40.1526 66.4302 40.3724C66.3461 40.2887 66.2569 40.2049 66.1676 40.1212C66.0783 40.0375 65.9838 39.9589 65.8945 39.8804C65.8052 39.8019 65.7054 39.7234 65.6057 39.6501C65.5059 39.5768 65.4114 39.5036 65.3063 39.4303C65.1173 39.2994 64.923 39.1738 64.7286 39.0587C64.5343 38.9435 64.3295 38.8336 64.1247 38.7341C63.9199 38.6347 63.7098 38.5405 63.4945 38.462C63.2792 38.3834 63.0639 38.3049 62.8381 38.2369L55.0342 30.4902C55.2653 30.5583 55.4911 30.6316 55.7116 30.7153C55.9322 30.7991 56.1528 30.8933 56.3628 30.9927C56.5729 31.0922 56.783 31.2073 56.9878 31.3225C57.1926 31.4376 57.3922 31.5685 57.5865 31.7046C57.6915 31.7779 57.7913 31.8511 57.8963 31.9296C58.0013 32.0082 58.0959 32.0867 58.1904 32.1652C58.2849 32.2437 58.3795 32.3274 58.474 32.4112C58.5685 32.4949 58.6578 32.5839 58.7471 32.6729H58.7523Z" fill="#18181B"/>
<path d="M63.6833 36.8814C62.1341 35.3216 60.5901 33.767 59.0409 32.2072C59.0409 32.2072 59.0514 32.2177 59.0566 32.2177C59.0619 32.2177 59.0672 32.2282 59.0724 32.2282C59.0777 32.2282 59.0829 32.2386 59.0882 32.2439C59.0934 32.2491 59.0987 32.2543 59.1039 32.2596C59.3822 32.5422 59.7604 32.9191 60.0387 33.2017C60.317 33.4844 60.7267 33.8926 61.0207 34.191C61.3148 34.4893 61.7245 34.8976 62.0238 35.2012C62.3232 35.5048 62.7275 35.913 63.0321 36.2166C63.3367 36.5202 63.7306 36.918 64.0299 37.2216C64.3293 37.5252 64.7074 37.902 64.9962 38.1952C65.2851 38.4883 65.6369 38.8442 65.9153 39.1216C66.1726 39.3781 66.5139 39.7236 66.7713 39.9853L66.7608 39.9748L66.7503 39.9643L66.7398 39.9539L66.7292 39.9434C65.7209 38.928 64.7126 37.9125 63.7096 36.9023L63.6833 36.8814Z" fill="#18181B"/>
<path d="M59.3403 55.9701L51.216 49.0295C50.6751 48.5689 50.1972 48.0507 49.7823 47.475C49.3675 46.8992 49.0156 46.2868 48.7373 45.6273C48.4589 44.9678 48.2489 44.2664 48.1176 43.5336C47.9863 42.8008 47.9285 42.0418 47.9495 41.2567C47.9758 40.3774 48.1018 39.5032 48.3224 38.6501C48.543 37.7969 48.8475 36.9594 49.2362 36.1533C49.6248 35.3473 50.0974 34.5778 50.6384 33.8503C51.1793 33.1227 51.799 32.4423 52.4764 31.8246L60.3906 39.4875C59.7446 40.0738 59.1565 40.7228 58.6418 41.4137C58.1271 42.1047 57.6808 42.8427 57.3131 43.6069C56.9455 44.3711 56.6567 45.1719 56.4571 45.9937C56.2576 46.8154 56.142 47.6477 56.1263 48.4904C56.1105 49.2441 56.1735 49.9769 56.3101 50.6783C56.4466 51.3797 56.6514 52.0549 56.9298 52.6882C57.2081 53.3216 57.5495 53.9235 57.9538 54.4731C58.3582 55.0227 58.8256 55.5252 59.3455 55.9753L59.3403 55.9701Z" fill="#FAFAFA"/>
<path d="M59.651 55.5669L51.5425 48.6054C51.0279 48.1657 50.571 47.6685 50.1771 47.1241C49.7832 46.5798 49.4524 45.9883 49.1845 45.3602C48.9167 44.7321 48.7224 44.0621 48.5911 43.366C48.4598 42.6698 48.4073 41.9423 48.4336 41.1938C48.4651 40.1312 48.6489 39.0739 48.9692 38.048C49.2896 37.0221 49.7465 36.0381 50.3189 35.1064C50.8913 34.1747 51.5845 33.311 52.3723 32.5311C53.16 31.7512 54.058 31.0603 55.0348 30.4846L62.8387 38.2312C61.9039 38.7703 61.0532 39.4246 60.297 40.1679C59.5407 40.9111 58.8895 41.7329 58.3434 42.6175C57.7972 43.5021 57.3718 44.4442 57.0725 45.423C56.7731 46.4018 56.6051 47.412 56.5841 48.4327C56.5683 49.1498 56.6313 49.8459 56.7574 50.5159C56.8834 51.1859 57.083 51.8297 57.3455 52.4316C57.6081 53.0336 57.9337 53.6093 58.3171 54.1328C58.7005 54.6562 59.1469 55.1377 59.6405 55.5669H59.651Z" fill="#18181B"/>
<path d="M62.6004 57.2271C62.3221 57.1329 62.049 57.0282 61.7812 56.9131C61.5133 56.7979 61.2613 56.6671 61.0144 56.531C60.7676 56.3949 60.5313 56.2431 60.3002 56.0809C60.0691 55.9186 59.8538 55.7511 59.6438 55.5679L51.5353 48.6064C51.7506 48.7948 51.9764 48.9675 52.2127 49.135C52.4491 49.3025 52.6959 49.4543 52.9532 49.5957C53.2105 49.737 53.4731 49.8678 53.7462 49.9882C54.0193 50.1086 54.3029 50.2133 54.5917 50.3075C56.9917 52.3803 60.1952 55.1492 62.5952 57.2219L62.6004 57.2271Z" fill="#18181B"/>
<path d="M65.1584 55.3057C64.9641 55.4942 64.7645 55.6774 64.5597 55.8501C64.3549 56.0228 64.1448 56.1956 63.9348 56.3526C63.7247 56.5096 63.5041 56.6666 63.2836 56.8132C63.063 56.9598 62.8372 57.0958 62.6061 57.2267L54.6027 50.3123C54.8442 50.1762 55.0806 50.0296 55.3116 49.8726C55.5427 49.7156 55.7738 49.5586 55.9943 49.3858C56.2149 49.2131 56.4355 49.0404 56.6508 48.8519C56.8661 48.6635 57.0762 48.4751 57.2757 48.2762C59.9015 50.6211 62.5273 52.9608 65.1531 55.3057H65.1584Z" fill="#18181B"/>
<path d="M68.9508 46.8001C68.9508 47.5695 68.8563 48.3442 68.6882 49.1031C68.5202 49.8621 68.2681 50.6158 67.9478 51.3434C67.6274 52.0709 67.2283 52.7723 66.7609 53.4371C66.2935 54.1018 65.7578 54.7299 65.1592 55.3057C62.5334 52.9607 59.9075 50.621 57.2817 48.2761C57.9119 47.669 58.4739 47.0094 58.9675 46.3081C59.4612 45.6067 59.8813 44.8739 60.2226 44.1097C60.564 43.3455 60.8318 42.5604 61.0156 41.7648C61.1994 40.9691 61.2992 40.1631 61.3097 39.357C63.8568 41.838 66.4038 44.3191 68.9456 46.8001C66.3985 44.3191 63.8568 41.838 61.3097 39.357C61.3202 38.6923 61.2677 38.0485 61.1574 37.4308C61.0471 36.8132 60.8843 36.2165 60.6638 35.6459C60.4432 35.0754 60.1754 34.5468 59.855 34.0495C59.5347 33.5523 59.1618 33.0917 58.7469 32.6729L66.4248 40.3672C66.8292 40.7702 67.1915 41.2204 67.5014 41.6967C67.8112 42.173 68.0791 42.6912 68.2944 43.2356C68.5097 43.7799 68.6725 44.3557 68.7828 44.9472C68.893 45.5386 68.9456 46.1615 68.9456 46.7948L68.9508 46.8001Z" fill="#18181B"/>
<path d="M59.1558 32.3218C59.3973 32.5625 59.7177 32.8871 59.9593 33.1278C60.08 33.2482 60.2376 33.4105 60.3584 33.5309C60.5947 33.7716 60.9098 34.0857 61.1461 34.3265C61.3824 34.5672 61.6923 34.8761 61.9286 35.1116C62.0441 35.2268 62.2017 35.3838 62.3172 35.5042C62.5483 35.7345 62.8581 36.0485 63.0892 36.2788C63.3203 36.5091 63.6249 36.818 63.8507 37.0483C63.9662 37.1634 64.1133 37.3152 64.2288 37.4304C64.4546 37.6554 64.754 37.959 64.9798 38.1841C65.2056 38.4092 65.4997 38.7075 65.7203 38.9326C65.8306 39.0425 65.9776 39.1943 66.0879 39.3042C66.3084 39.524 66.6025 39.8224 66.8179 40.0422C67.238 40.4662 67.6108 40.9321 67.9364 41.4293C68.262 41.9266 68.5351 42.4657 68.761 43.0362C68.9868 43.6067 69.1548 44.1982 69.2651 44.8211C69.3754 45.4439 69.4332 46.0878 69.4332 46.7473C69.4332 47.5533 69.3386 48.3594 69.1601 49.155C68.9815 49.9506 68.7242 50.7357 68.3881 51.4947C68.052 52.2537 67.6319 52.9917 67.1435 53.6826C66.6551 54.3735 66.0931 55.033 65.4682 55.635C65.2581 55.8391 65.0428 56.038 64.8222 56.2264C64.6017 56.4149 64.3759 56.5981 64.1448 56.7708C63.9137 56.9435 63.6774 57.1058 63.4358 57.2628C63.1942 57.4198 62.9474 57.5664 62.7006 57.7025L54.6971 50.8038C54.9597 50.6572 55.2171 50.5002 55.4691 50.3327C55.7212 50.1652 55.968 49.9925 56.2149 49.8093C56.4617 49.6261 56.698 49.4324 56.9291 49.2335C57.1601 49.0346 57.386 48.8253 57.6118 48.6107C58.2682 47.9721 58.8617 47.2864 59.3763 46.5536C59.891 45.8208 60.3321 45.0514 60.6945 44.2558C61.0568 43.4602 61.3299 42.6384 61.5242 41.8009C61.7185 40.9635 61.8183 40.126 61.8288 39.2833C61.8393 38.5924 61.7868 37.9224 61.6713 37.2733C61.5557 36.6243 61.3877 36.0067 61.1619 35.4152C60.9361 34.8237 60.6525 34.2689 60.3216 33.7507C59.9908 33.2325 59.6021 32.751 59.1715 32.3165L59.1558 32.3218Z" fill="#18181B"/>
<path d="M66.8128 40.0365C66.8128 40.0365 66.8023 40.0261 66.797 40.0208C66.7918 40.0156 66.7865 40.0104 66.7813 40.0051C66.776 39.9999 66.7707 39.9947 66.7655 39.9894C66.7602 39.9842 66.755 39.979 66.7497 39.9737C64.1975 37.4037 61.6399 34.8285 59.0876 32.2585C59.0876 32.2585 59.0981 32.269 59.1034 32.2742C59.1087 32.2794 59.1139 32.2847 59.1192 32.2899C59.1244 32.2951 59.1297 32.3004 59.1349 32.3056C59.1402 32.3108 59.1454 32.3161 59.1507 32.3213C61.4509 34.6348 64.5126 37.723 66.8128 40.0365Z" fill="#18181B"/>
<path d="M54.4881 56.5464C54.3043 56.4783 54.131 56.3998 53.9525 56.3161C53.7739 56.2323 53.6111 56.1433 53.4431 56.0491C53.275 55.9549 53.1175 55.8502 52.9599 55.7455C52.8024 55.6408 52.6553 55.5257 52.5083 55.4053L44.1162 48.5118C44.2685 48.6375 44.4208 48.7526 44.5836 48.8625C44.7464 48.9725 44.9092 49.0771 45.0825 49.1766C45.2558 49.276 45.4291 49.365 45.6077 49.454C45.7862 49.543 45.97 49.6163 46.1591 49.6895C48.9319 51.9769 51.71 54.2642 54.4829 56.5516L54.4881 56.5464Z" fill="#FAFAFA"/>
<path d="M38.2398 82.5396C37.3365 82.4559 36.4595 82.325 35.6035 82.1523C34.7475 81.9796 33.923 81.7597 33.1195 81.498C32.316 81.2363 31.5388 80.938 30.7825 80.5977C30.0263 80.2575 29.3016 79.8859 28.5979 79.4724L19.0137 73.8718C19.7384 74.2957 20.4894 74.6831 21.2666 75.0285C22.0438 75.374 22.8526 75.6828 23.6824 75.9497C24.5121 76.2167 25.3734 76.4365 26.2556 76.6145C27.1379 76.7925 28.0517 76.9181 28.9917 76.9966C32.0744 78.8443 35.1624 80.692 38.2451 82.5344L38.2398 82.5396Z" fill="#FAFAFA"/>
<path d="M54.4873 56.5462C51.7144 54.2588 48.9363 51.9715 46.1635 49.6841C46.4575 49.794 46.7674 49.8882 47.0825 49.9668C47.3976 50.0453 47.7232 50.0976 48.054 50.1343C48.3849 50.1709 48.7262 50.1866 49.0781 50.1814C49.43 50.1761 49.7818 50.15 50.1442 50.1029C50.3017 50.0819 50.4645 50.0557 50.6221 50.0296C50.7796 50.0034 50.9372 49.9668 51.1 49.9301C51.2628 49.8935 51.4151 49.8516 51.5726 49.8045C51.7302 49.7574 51.8877 49.7103 52.04 49.6527L60.138 56.5724C59.9909 56.6247 59.8386 56.6718 59.6863 56.7137C59.534 56.7555 59.387 56.7974 59.2347 56.8288C59.0824 56.8602 58.9301 56.8916 58.7778 56.923C58.6255 56.9544 58.4732 56.9701 58.3209 56.9911C57.9743 57.033 57.633 57.0539 57.2969 57.0539C56.9608 57.0539 56.6352 57.033 56.3148 56.9963C55.9945 56.9597 55.6794 56.9021 55.38 56.8236C55.0807 56.7451 54.7813 56.6561 54.4978 56.5462H54.4873Z" fill="#FAFAFA"/>
<path d="M50.6337 31.918C50.7912 31.8918 50.9435 31.8761 51.0958 31.8604C51.2481 31.8447 51.4056 31.8342 51.5579 31.8238C51.7102 31.8133 51.8678 31.8133 52.0201 31.8133C52.1724 31.8133 52.3247 31.8185 52.477 31.829C51.7995 32.4466 51.1798 33.1271 50.6389 33.8546C50.098 34.5822 49.6253 35.3516 49.2367 36.1577C48.8481 36.9638 48.5383 37.8012 48.3229 38.6544C48.1076 39.5076 47.9763 40.3869 47.9501 41.2611C47.9238 42.1352 47.9973 42.9884 48.1654 43.7997C48.3334 44.611 48.596 45.3804 48.9479 46.0975C49.2997 46.8146 49.7356 47.4793 50.2503 48.076C50.7649 48.6727 51.3636 49.2066 52.0306 49.6567C51.873 49.7091 51.7207 49.7614 51.5632 49.8085C51.4056 49.8556 51.2481 49.8975 51.0905 49.9342C50.933 49.9708 50.7754 50.0074 50.6126 50.0336C50.4498 50.0598 50.2923 50.086 50.1348 50.1069C48.8744 50.2692 47.6875 50.1697 46.6162 49.8399C45.5448 49.5102 44.5996 48.9711 43.8171 48.2487C43.0346 47.5264 42.4149 46.6366 42.0053 45.6107C41.5956 44.5848 41.3908 43.4385 41.4381 42.1927C41.4853 40.947 41.7742 39.7431 42.2626 38.6073C42.751 37.4715 43.4284 36.4194 44.2582 35.4929C45.088 34.5665 46.0647 33.7709 47.1361 33.1585C48.2074 32.5461 49.3943 32.1169 50.6284 31.9232L50.6337 31.918Z" fill="#FAFAFA"/>
<path d="M59.3396 55.9694L51.2153 49.0288C51.2784 49.0864 51.3466 49.1387 51.4096 49.1911C51.4727 49.2434 51.5409 49.2958 51.6092 49.3481C51.6775 49.4004 51.7457 49.4528 51.814 49.4999C51.8823 49.547 51.9558 49.5993 52.0241 49.6464C52.2079 49.7721 52.3969 49.8872 52.5913 50.0024C52.7856 50.1175 52.9851 50.2222 53.1899 50.3164C53.3948 50.4106 53.6048 50.5049 53.8201 50.5938C54.0354 50.6828 54.256 50.7561 54.4818 50.8294L62.4958 57.7228C62.2805 57.6548 62.0652 57.5763 61.8603 57.4925C61.6555 57.4088 61.4507 57.3198 61.2512 57.2204C61.0516 57.1209 60.8573 57.0215 60.6735 56.9115C60.4897 56.8016 60.3006 56.6865 60.1221 56.5661C60.0538 56.519 59.9855 56.4719 59.9172 56.4248C59.849 56.3777 59.786 56.3253 59.7177 56.2782C59.6494 56.2311 59.5864 56.1788 59.5234 56.1264C59.4604 56.0741 59.3973 56.0217 59.3343 55.9694H59.3396Z" fill="#18181B"/>
<path d="M54.5879 50.8678L62.5966 57.7613L62.5021 57.7246L54.4934 50.8312L54.5879 50.8678Z" fill="#18181B"/>
<path d="M54.6877 50.8096L62.6911 57.703L62.5966 57.7606L54.5879 50.8671L54.6877 50.8096Z" fill="#18181B"/>
<path d="M55.0346 30.4852C55.2657 30.5533 55.4915 30.6265 55.7121 30.7103C55.9326 30.794 56.1532 30.8883 56.3633 30.9877C56.5733 31.0872 56.7834 31.2023 56.9882 31.3175C57.193 31.4326 57.3926 31.5635 57.5869 31.6996C58.1856 32.1131 58.716 32.5946 59.1834 33.139C59.6508 33.6833 60.0446 34.2853 60.3597 34.9395C60.6748 35.5938 60.9217 36.2952 61.0792 37.0332C61.2368 37.7712 61.3155 38.5511 61.305 39.352C61.2945 40.1528 61.1947 40.9641 61.0109 41.7597C60.8271 42.5553 60.5593 43.3457 60.2179 44.1047C59.8766 44.8636 59.4512 45.6069 58.9576 46.303C58.4639 46.9992 57.902 47.6639 57.2718 48.2711C57.067 48.47 56.8569 48.6637 56.6468 48.8469C56.4368 49.0301 56.211 49.208 55.9904 49.3807C55.7698 49.5535 55.5388 49.7105 55.3077 49.8675C55.0766 50.0246 54.8403 50.1659 54.5987 50.3072C53.6219 49.9879 52.7344 49.5273 51.9624 48.9411C51.1904 48.3548 50.5287 47.6587 49.9983 46.8631C49.4679 46.0675 49.0583 45.1829 48.7957 44.2303C48.5331 43.2776 48.4071 42.257 48.4386 41.1892C48.4701 40.1214 48.6539 39.0693 48.9742 38.0434C49.2946 37.0175 49.7515 36.0335 50.3239 35.1018C50.8963 34.1701 51.5896 33.3065 52.3773 32.5266C53.165 31.7467 54.0631 31.0557 55.0399 30.48L55.0346 30.4852Z" fill="#18181B"/>
<path d="M60.5749 31.0875C63.1062 33.6784 65.6374 36.2746 68.1687 38.8656C68.6413 39.3523 69.0615 39.881 69.4291 40.4515C69.7967 41.0221 70.1065 41.6345 70.3586 42.2835C70.6107 42.9325 70.805 43.613 70.9363 44.3196C71.0676 45.0262 71.1306 45.759 71.1306 46.5128C71.1306 47.4444 71.0203 48.3761 70.8208 49.2974C70.6212 50.2186 70.3166 51.1293 69.928 52.0034C69.5394 52.8776 69.0562 53.7307 68.4943 54.5368C67.9324 55.3429 67.2812 56.0966 66.5617 56.7928C66.1573 57.1853 65.732 57.557 65.2908 57.8972C64.8497 58.2374 64.3875 58.5567 63.9149 58.8498C63.4423 59.1429 62.9539 59.3994 62.4602 59.6349C61.9666 59.8705 61.4571 60.0694 60.9477 60.2369C60.7272 60.3102 60.5066 60.3782 60.286 60.441C60.0655 60.5038 59.8397 60.5614 59.6138 60.6085C59.388 60.6556 59.1622 60.7027 58.9364 60.7446C58.7106 60.7865 58.4847 60.8179 58.2589 60.844C57.4712 60.933 56.6992 60.9487 55.9535 60.8964C55.2077 60.844 54.4935 60.7184 53.8108 60.53C53.1281 60.3416 52.4769 60.0903 51.8677 59.7815C51.2585 59.4727 50.6861 59.1063 50.1557 58.6875L41.6376 51.9616C42.1837 52.3908 42.7719 52.7676 43.4074 53.0817C44.0428 53.3958 44.715 53.6522 45.424 53.8459C46.133 54.0396 46.8787 54.1599 47.6507 54.2071C48.4227 54.2542 49.2261 54.2332 50.0454 54.1285C50.2817 54.0971 50.518 54.0605 50.7544 54.0186C50.9907 53.9767 51.227 53.9296 51.4633 53.8721C51.6997 53.8145 51.9307 53.7569 52.167 53.6889C52.4034 53.6208 52.6292 53.5475 52.8603 53.469C53.3959 53.2858 53.9263 53.0712 54.4462 52.8252C54.9662 52.5792 55.4756 52.2966 55.9692 51.993C56.4629 51.6894 56.946 51.3492 57.4082 50.9828C57.8703 50.6164 58.3167 50.229 58.7421 49.8155C59.5035 49.0828 60.181 48.2819 60.7797 47.434C61.3784 46.586 61.8825 45.6962 62.2974 44.775C62.7123 43.8538 63.0326 42.9011 63.2532 41.938C63.4738 40.9749 63.5946 40.0014 63.6051 39.0278C63.6156 38.2427 63.5525 37.4785 63.4265 36.7405C63.3005 36.0024 63.1062 35.2958 62.8488 34.6258C62.5915 33.9559 62.2711 33.3173 61.8983 32.7258C61.5254 32.1344 61.0895 31.5848 60.6011 31.0823L60.5749 31.0875Z" fill="#18181B"/>
<path d="M59.0674 29.8198C59.7869 30.3118 60.4328 30.8928 60.9948 31.5471C61.5567 32.2013 62.0346 32.9237 62.4232 33.7088C62.8118 34.4939 63.1059 35.3419 63.3055 36.2317C63.505 37.1215 63.5996 38.0637 63.5891 39.032C63.5786 40.0003 63.4578 40.9791 63.2372 41.9422C63.0166 42.9053 62.6963 43.858 62.2814 44.7792C61.8665 45.7004 61.3571 46.5954 60.7637 47.4382C60.1703 48.2809 59.4876 49.0817 58.7261 49.8197C58.3007 50.2332 57.8543 50.6258 57.3922 50.987C56.93 51.3481 56.4469 51.6883 55.9532 51.9972C55.4596 52.306 54.9502 52.5834 54.4303 52.8294C53.9103 53.0754 53.3799 53.2953 52.8443 53.4732C52.6132 53.5517 52.3874 53.625 52.1511 53.6931C51.9147 53.7611 51.6837 53.8239 51.4473 53.8762C51.211 53.9286 50.9747 53.9809 50.7384 54.0228C50.502 54.0647 50.2657 54.1013 50.0294 54.1327C48.2176 54.3578 46.5108 54.2008 44.9774 53.7245C43.4439 53.2481 42.0995 52.4578 40.9809 51.4109C39.8623 50.3641 38.9958 49.0869 38.4181 47.6161C37.8404 46.1453 37.5621 44.507 37.6356 42.7326C37.7091 40.9582 38.1293 39.2414 38.8277 37.624C39.5262 36.0066 40.4925 34.5096 41.6741 33.1958C42.8557 31.8821 44.2421 30.7462 45.7703 29.8669C47.2986 28.9875 48.9843 28.3699 50.7384 28.0925C50.9694 28.0558 51.1953 28.0244 51.4263 27.9983C51.6574 27.9721 51.8832 27.9564 52.109 27.9407C52.3349 27.925 52.5659 27.925 52.7865 27.925C53.0071 27.925 53.2381 27.9302 53.4587 27.9459C53.9681 27.9721 54.4775 28.0297 54.9712 28.1239C55.4648 28.2181 55.9532 28.3437 56.4259 28.5008C56.8985 28.6578 57.3554 28.8462 57.7965 29.066C58.2377 29.2859 58.663 29.5371 59.0674 29.8198ZM57.597 48.6159C58.2534 47.9773 58.8469 47.2916 59.3615 46.5588C59.8762 45.826 60.3173 45.0566 60.6797 44.261C61.042 43.4654 61.3151 42.6436 61.5094 41.8061C61.7037 40.9687 61.8035 40.1312 61.814 39.2885C61.8245 38.4458 61.7457 37.6345 61.5777 36.8598C61.4096 36.0851 61.1576 35.3523 60.8215 34.6719C60.4854 33.9914 60.0757 33.3633 59.5873 32.7928C59.0989 32.2223 58.5423 31.7198 57.9173 31.2906C57.7073 31.144 57.4919 31.0079 57.2714 30.8771C57.0508 30.7462 56.825 30.6311 56.5887 30.5212C56.3523 30.4112 56.1213 30.3118 55.8797 30.2228C55.6381 30.1338 55.3913 30.0553 55.1445 29.9873L55.0499 29.9611L54.9502 30.0187C54.7243 30.1495 54.509 30.2856 54.2937 30.4269C54.0784 30.5683 53.8683 30.7148 53.6635 30.8666C53.4587 31.0184 53.2539 31.1754 53.0596 31.3377C52.8653 31.5 52.671 31.6675 52.4819 31.835C52.3296 31.8245 52.1773 31.8192 52.025 31.8192C51.8727 31.8192 51.7204 31.8192 51.5629 31.8297C51.4053 31.8402 51.253 31.8507 51.1007 31.8664C50.9484 31.8821 50.7909 31.903 50.6386 31.9239C49.4045 32.1124 48.2281 32.5416 47.1463 33.1592C46.0644 33.7768 45.0929 34.5672 44.2684 35.4937C43.4439 36.4201 42.7559 37.4774 42.2728 38.608C41.7896 39.7386 41.4955 40.9582 41.4483 42.1935C41.401 43.4287 41.6058 44.5855 42.0154 45.6114C42.4251 46.6373 43.0448 47.5324 43.8273 48.2495C44.6097 48.9666 45.5603 49.5161 46.6264 49.8407C47.6924 50.1652 48.8846 50.2699 50.1449 50.1076C50.3025 50.0867 50.4653 50.0605 50.6228 50.0343C50.7804 50.0082 50.9379 49.9715 51.1007 49.9349C51.2635 49.8982 51.4158 49.8564 51.5734 49.8093C51.7309 49.7622 51.8885 49.715 52.0408 49.6575C52.2246 49.7831 52.4136 49.8982 52.6079 50.0134C52.8023 50.1285 53.0018 50.2332 53.2066 50.3274C53.4114 50.4217 53.6215 50.5159 53.8368 50.6049C54.0521 50.6938 54.2727 50.7671 54.4985 50.8404L54.5983 50.8718L54.6981 50.8142C54.9607 50.6677 55.218 50.5106 55.4701 50.3432C55.7221 50.1757 55.969 50.0029 56.2158 49.8197C56.4626 49.6365 56.6989 49.4429 56.93 49.244C57.1611 49.0451 57.3869 48.8357 57.6127 48.6211" fill="#18181B"/>
<path d="M74.1865 17.7863C71.8023 14.876 69.418 11.9658 67.0338 9.05559C66.976 8.9666 66.913 8.87762 66.8553 8.78864C66.7975 8.69966 66.7345 8.61591 66.6715 8.53216C66.6084 8.44842 66.5454 8.36467 66.4824 8.28092C66.4194 8.19717 66.3511 8.11343 66.2881 8.03491L73.4618 16.797C73.5248 16.8755 73.5878 16.954 73.6508 17.0378C73.7139 17.1215 73.7769 17.2 73.8346 17.2838C73.8924 17.3675 73.9554 17.4513 74.0132 17.535C74.071 17.6188 74.1287 17.7025 74.1865 17.7915V17.7863Z" fill="#FAFAFA"/>
<path d="M74.1865 17.7862C74.4596 18.1945 74.7117 18.6185 74.948 19.0634C75.1843 19.5083 75.3996 19.9689 75.5992 20.44C75.7988 20.9111 75.9878 21.4083 76.1559 21.9108C76.3239 22.4133 76.4815 22.9315 76.6233 23.4549C74.2548 20.6127 71.8863 17.7653 69.5178 14.9231C69.4443 14.6509 69.3708 14.3788 69.292 14.1118C69.2132 13.8449 69.1292 13.5779 69.0452 13.3214C68.9612 13.065 68.8666 12.8033 68.7721 12.552C68.6776 12.3008 68.5778 12.0495 68.478 11.8035C68.373 11.5575 68.2679 11.3167 68.1577 11.076C68.0474 10.8352 67.9318 10.6049 67.8111 10.3746C67.6903 10.1443 67.5642 9.9192 67.4382 9.7046C67.3122 9.49 67.1756 9.27016 67.0338 9.06079C67.1651 9.21782 67.3332 9.42719 67.4644 9.58945C67.5957 9.75171 67.7743 9.96631 67.9056 10.1286C68.1787 10.4636 68.5463 10.9085 68.8194 11.2435C69.0924 11.5785 69.4758 12.0443 69.7542 12.3845C70.0325 12.7247 70.4106 13.1906 70.6942 13.536C70.9778 13.8815 71.3454 14.3317 71.6237 14.6719C71.9021 15.0121 72.2539 15.4413 72.5217 15.7711C72.7896 16.1008 73.1204 16.5039 73.3778 16.8179C73.6193 17.111 73.9397 17.4984 74.176 17.7915L74.1865 17.7862Z" fill="#FAFAFA"/>
<path d="M27.1947 83.3088C23.965 81.503 20.7405 79.7025 17.5107 77.8967C18.5926 78.4986 19.7164 79.0325 20.8928 79.4826C22.0691 79.9328 23.3033 80.3149 24.5794 80.6028C25.8555 80.8906 27.1947 81.0948 28.5706 81.1995C29.9466 81.3041 31.3855 81.3198 32.8612 81.2256L42.0095 86.6064C40.5916 86.6849 39.2156 86.6587 37.8817 86.5488C36.5478 86.4389 35.2717 86.2348 34.0323 85.9469C32.7929 85.659 31.6113 85.2926 30.4665 84.8529C29.3216 84.4133 28.2345 83.8951 27.1895 83.3088H27.1947Z" fill="#18181B"/>
<path d="M74.4379 53.6188C71.9486 51.2163 69.4594 48.819 66.9701 46.4165C67.9731 43.7157 68.7924 40.9625 69.4121 38.204C70.0318 35.4456 70.4519 32.7081 70.6725 30.0073C70.8878 27.3221 70.9088 24.6893 70.7145 22.1507C70.5202 19.6121 70.1316 17.2044 69.5224 14.9222L76.6278 23.454C77.2265 25.6524 77.6256 27.9816 77.8304 30.4051C78.0352 32.8285 78.0405 35.3671 77.8514 37.9423C77.6624 40.5176 77.279 43.1556 76.7118 45.7832C76.1447 48.4108 75.3779 51.0488 74.4379 53.6241V53.6188Z" fill="#FAFAFA"/>
<path d="M38.2388 82.5392C35.1561 80.6915 32.0682 78.8438 28.9855 77.0014C29.3163 77.0276 29.6524 77.0537 29.9885 77.0642C30.3246 77.0747 30.6712 77.0904 31.0126 77.0904C31.3539 77.0904 31.7058 77.0904 32.0577 77.0799C32.4095 77.0694 32.7666 77.0537 33.1237 77.0276C33.171 77.0276 33.2183 77.0223 33.2603 77.0171C33.3023 77.0119 33.3548 77.0066 33.4021 77.0066C33.4493 77.0066 33.4966 76.9962 33.5439 76.9909C33.5911 76.9857 33.6384 76.9805 33.6804 76.9752C35.3189 76.813 36.9259 76.5198 38.4909 76.1011C40.0559 75.6824 41.5946 75.1328 43.0808 74.4733C44.567 73.8138 46.0164 73.0391 47.4134 72.1597C48.8103 71.2804 50.16 70.3016 51.4519 69.2286C54.2195 71.249 56.9871 73.2694 59.7547 75.2898C58.5205 76.3052 57.2391 77.2317 55.9052 78.0587C54.5713 78.8857 53.1954 79.6133 51.767 80.2361C50.3385 80.859 48.8786 81.3667 47.3766 81.7541C45.8747 82.1414 44.3359 82.4136 42.7604 82.5549C42.7184 82.5549 42.6712 82.5654 42.6292 82.5654C42.5871 82.5654 42.5399 82.5706 42.4926 82.5758C42.4453 82.5811 42.4033 82.5811 42.3561 82.5863C42.3088 82.5915 42.2668 82.5915 42.2248 82.5968C41.8782 82.6177 41.5368 82.6334 41.2007 82.6386C40.8646 82.6439 40.5285 82.6491 40.1977 82.6386C39.8668 82.6282 39.536 82.6229 39.2104 82.6072C38.8848 82.5915 38.5644 82.5654 38.2441 82.5392H38.2388Z" fill="#FAFAFA"/>
<path d="M59.7538 75.2895C56.9862 73.2691 54.2186 71.2487 51.451 69.2283C53.1736 67.7993 54.8016 66.2186 56.3193 64.5018C57.837 62.7849 59.2602 60.9425 60.5626 58.9954C61.865 57.0482 63.0571 55.0121 64.1232 52.9027C65.1893 50.7933 66.1398 48.6264 66.9643 46.4123C69.4536 48.8148 71.9428 51.2121 74.4321 53.6146C73.6601 55.724 72.7726 57.7915 71.7643 59.7962C70.756 61.8009 69.6321 63.7428 68.398 65.5905C67.1639 67.4381 65.8195 69.1864 64.3753 70.8142C62.9311 72.4421 61.3871 73.9391 59.7433 75.2895H59.7538Z" fill="#FAFAFA"/>
<path d="M73.4255 13.3377C74.418 16.9702 74.9064 20.9325 74.9222 25.0676C74.9379 29.2445 74.4706 33.5941 73.5463 37.949C72.6115 42.3353 71.2198 46.7163 69.3975 50.9141C67.5752 55.112 65.3117 59.158 62.6702 62.8063C61.7354 64.0991 60.7639 65.3292 59.7608 66.5016C58.7577 67.6741 57.7127 68.7838 56.6413 69.8306C55.57 70.8774 54.4619 71.8562 53.3276 72.7722C52.1932 73.6882 51.0326 74.5309 49.8458 75.3056C48.5539 76.1535 47.2357 76.9073 45.8965 77.5772C44.5574 78.2472 43.2077 78.823 41.8371 79.315C40.4664 79.807 39.0905 80.2048 37.6935 80.5136C36.2966 80.8225 34.9049 81.0423 33.4922 81.1731C33.4397 81.1731 33.3872 81.1836 33.3347 81.1889C33.2822 81.1941 33.2297 81.1993 33.1771 81.1993C33.1246 81.1993 33.0721 81.2098 33.0196 81.2098C32.9671 81.2098 32.9146 81.2203 32.862 81.2255C26.9435 81.5919 21.7759 80.3043 17.4013 77.8337C13.1107 75.4103 9.59742 71.851 6.88233 67.5904C4.16725 63.3297 2.33444 58.5613 1.23685 53.4423C0.160274 48.4017 -0.154823 43.0837 0.323074 37.8495C0.533138 35.7192 0.785216 33.5889 1.14758 31.4847C1.50994 29.3806 1.97208 27.3183 2.60227 25.2979C3.23247 23.2775 4.02021 21.3146 5.03377 19.4198C6.04733 17.5251 7.27621 15.7035 8.79917 13.971C9.55015 13.1283 10.3694 12.3536 11.2464 11.647C12.1234 10.9404 13.0477 10.3018 14.0088 9.74701C14.9698 9.19218 15.9781 8.71063 17.0074 8.31806C18.0368 7.9255 19.0923 7.62191 20.1584 7.41778C21.0407 7.24505 21.9072 7.1456 22.7527 7.11943C23.5982 7.09326 24.428 7.1299 25.2262 7.23982C26.0245 7.34973 26.7912 7.53293 27.5159 7.77894C28.2406 8.02495 28.9286 8.34947 29.564 8.7368C30.1995 9.1189 30.7719 9.56904 31.2866 10.0558C31.8012 10.5426 32.2686 11.0817 32.6887 11.6366C33.1089 12.1914 33.4975 12.7776 33.8599 13.3639C34.2222 13.9501 34.5583 14.5416 34.8839 15.1121C34.9679 15.2586 35.0467 15.4 35.1307 15.5413C35.2148 15.6826 35.2935 15.8239 35.3723 15.96C35.4511 16.0961 35.5299 16.2322 35.6139 16.3683C35.6979 16.5044 35.7714 16.6352 35.8502 16.7609C35.908 16.8551 35.9657 16.9493 36.013 17.0278C36.0603 17.1063 36.1128 17.1848 36.1601 17.2581C36.2073 17.3314 36.2493 17.3942 36.2914 17.457C36.3334 17.5198 36.3754 17.5722 36.4121 17.6245C36.5749 17.3733 36.7535 17.0958 36.9268 16.808C37.1001 16.5201 37.2839 16.2113 37.4625 15.9024C37.641 15.5936 37.8143 15.29 37.9771 14.9969C38.1399 14.7038 38.2922 14.4316 38.4288 14.1804C38.8489 13.4267 39.269 12.6625 39.7049 11.914C40.1408 11.1655 40.5924 10.4275 41.0651 9.72084C41.5377 9.01422 42.0366 8.339 42.5723 7.70566C43.1079 7.07232 43.6751 6.49132 44.2896 5.97837C45.0038 5.31362 45.7705 4.70122 46.574 4.14639C47.3775 3.59157 48.2283 3.08385 49.1105 2.6337C49.9928 2.18356 50.9066 1.80146 51.8414 1.47694C52.7762 1.15242 53.7372 0.895943 54.7087 0.707511C55.6278 0.529547 56.5416 0.419629 57.4396 0.372521C58.3376 0.325413 59.2304 0.34635 60.0916 0.430097C60.9529 0.513845 61.7984 0.665637 62.6019 0.88024C63.4054 1.09484 64.1826 1.37749 64.9074 1.71772C65.9314 2.19926 66.8767 2.79596 67.7432 3.51305C68.6098 4.23014 69.3975 5.06762 70.1012 6.02548C70.8049 6.98334 71.4404 8.07206 71.9918 9.2864C72.5432 10.5007 73.0211 11.8512 73.4255 13.3324V13.3377ZM33.6866 76.9753C40.2196 76.3367 46.1591 73.5626 51.2899 69.3648C56.4418 65.1407 60.7218 59.5244 63.9516 53.2538C67.1656 47.0199 69.3135 40.1997 70.2745 33.5104C71.2198 26.9152 71.0045 20.4929 69.5235 14.9184C69.2347 13.8297 68.8933 12.7776 68.4837 11.7936C68.0741 10.8096 67.5962 9.89357 67.0395 9.05086C66.4829 8.20815 65.8474 7.45965 65.1174 6.80014C64.3875 6.14063 63.5735 5.5858 62.6492 5.14089C62.0662 4.85825 61.4518 4.63317 60.8111 4.46045C60.1704 4.28772 59.5087 4.17256 58.826 4.10452C58.1433 4.03647 57.4501 4.02601 56.7464 4.06265C56.0427 4.09928 55.3337 4.18303 54.6247 4.31912C53.879 4.46045 53.1385 4.65411 52.4033 4.90012C51.6681 5.14613 50.9486 5.44448 50.2501 5.79517C49.5517 6.14586 48.8742 6.54366 48.223 6.98857C47.5718 7.43348 46.9574 7.93073 46.3797 8.47509C45.3924 9.27593 44.4786 10.4798 43.6173 11.8459C42.7561 13.2121 41.9316 14.7405 41.1228 16.1903C40.3141 17.6402 39.5211 19.0168 38.7123 20.0637C37.9036 21.1105 37.0791 21.8328 36.2178 21.9794C35.9395 22.0265 35.6559 22.016 35.3671 21.9323C35.0782 21.8485 34.7894 21.7072 34.49 21.4821C34.1907 21.2571 33.8914 20.9587 33.5815 20.5818C33.2717 20.205 32.9566 19.7391 32.6362 19.1843C32.2424 18.5457 31.8695 17.8705 31.4861 17.1901C31.1028 16.5096 30.7194 15.8344 30.2993 15.1801C29.8791 14.5258 29.4327 13.9134 28.9286 13.3639C28.4244 12.8143 27.8678 12.3275 27.2271 11.9349C26.7229 11.6209 26.182 11.3644 25.6096 11.1707C25.0371 10.977 24.4385 10.8357 23.8135 10.752C23.1886 10.6682 22.5531 10.6421 21.9019 10.663C21.2507 10.6839 20.589 10.7624 19.9221 10.8881C19.1186 11.0399 18.3046 11.2649 17.5063 11.558C16.7081 11.8512 15.9204 12.2123 15.1589 12.6415C14.3974 13.0707 13.6622 13.5575 12.9637 14.1123C12.2652 14.6672 11.614 15.2796 11.0101 15.9496C9.67619 17.4675 8.59961 19.1006 7.72259 20.8069C6.84557 22.5133 6.16286 24.3034 5.6272 26.1249C5.09154 27.9464 4.69766 29.815 4.39832 31.6784C4.09898 33.5418 3.88892 35.4104 3.72087 37.2214C3.31649 41.906 3.59483 46.7425 4.55587 51.3643C5.51692 55.9861 7.21319 60.5346 9.59742 64.4027C12.0237 68.3441 15.1799 71.6573 19.0608 73.9081C23.01 76.2007 27.705 77.3941 33.1194 77.0276C33.1666 77.0276 33.2139 77.0224 33.2559 77.0172C33.2979 77.012 33.3504 77.0067 33.3977 77.0067C33.445 77.0067 33.4922 76.9963 33.5395 76.991C33.5868 76.9858 33.634 76.9805 33.676 76.9753" fill="#18181B"/>
<path d="M57.917 31.2859C58.5419 31.7152 59.0986 32.2229 59.587 32.7882C60.0754 33.3535 60.485 33.9868 60.8211 34.6673C61.1572 35.3477 61.4093 36.0805 61.5774 36.8552C61.7454 37.6298 61.8242 38.4411 61.8137 39.2838C61.8032 40.1265 61.6982 40.9693 61.5091 41.8015C61.32 42.6337 61.0417 43.4607 60.6793 44.2563C60.317 45.0519 59.8811 45.8266 59.3612 46.5542C58.8413 47.2817 58.2584 47.9779 57.5967 48.6112C57.3761 48.8258 57.1503 49.0352 56.9139 49.2341C56.6776 49.433 56.4413 49.6267 56.1997 49.8098C55.9581 49.993 55.7113 50.1658 55.454 50.3333C55.1967 50.5008 54.9446 50.6578 54.682 50.8043L54.5822 50.8619L54.4824 50.8305C54.2566 50.7572 54.0361 50.684 53.8207 50.595C53.6054 50.506 53.3954 50.417 53.1906 50.3176C52.9857 50.2181 52.7862 50.1134 52.5919 50.0035C52.3976 49.8936 52.2085 49.7732 52.0247 49.6476C51.3577 49.1974 50.7643 48.6688 50.2444 48.0669C49.7245 47.4649 49.2939 46.8054 48.942 46.0883C48.5901 45.3712 48.3276 44.6018 48.1595 43.7905C47.9915 42.9792 47.9127 42.1312 47.9442 41.2519C47.9757 40.3725 48.0965 39.4984 48.3171 38.6453C48.5376 37.7921 48.8422 36.9546 49.2308 36.1485C49.6195 35.3425 50.0921 34.573 50.633 33.8455C51.1739 33.1179 51.7936 32.4375 52.4711 31.8198C52.6601 31.6471 52.8492 31.4848 53.0488 31.3226C53.2483 31.1603 53.4479 31.0033 53.6527 30.8515C53.8575 30.6997 54.0676 30.5532 54.2829 30.4118C54.4982 30.2705 54.7188 30.1344 54.9393 30.0036L55.0391 29.946L55.1336 29.9722C55.3857 30.0402 55.6273 30.1187 55.8689 30.2077C56.1104 30.2967 56.3468 30.3961 56.5778 30.506C56.8089 30.616 57.0347 30.7311 57.2605 30.862C57.4864 30.9928 57.6964 31.1289 57.9065 31.2755L57.917 31.2859ZM57.2816 48.2762C57.9117 47.6691 58.4737 47.0095 58.9673 46.3082C59.461 45.6068 59.8811 44.874 60.2277 44.1098C60.5743 43.3456 60.8369 42.5605 61.0207 41.7649C61.2045 40.9693 61.3043 40.1632 61.3148 39.3571C61.3253 38.551 61.2465 37.7764 61.089 37.0384C60.9314 36.3003 60.6846 35.5989 60.3695 34.9447C60.0544 34.2904 59.6553 33.6885 59.1931 33.1441C58.731 32.5997 58.1953 32.1182 57.5967 31.7047C57.4023 31.5686 57.2028 31.443 56.998 31.3226C56.7932 31.2022 56.5831 31.0923 56.373 30.9928C56.163 30.8934 55.9424 30.7992 55.7218 30.7154C55.5013 30.6317 55.2754 30.5584 55.0444 30.4903C54.0676 31.0661 53.1748 31.757 52.3818 32.5369C51.5888 33.3168 50.9008 34.1857 50.3284 35.1122C49.756 36.0386 49.2991 37.0279 48.9788 38.0538C48.6584 39.0797 48.4746 40.137 48.4431 41.1996C48.4116 42.2621 48.5376 43.288 48.8002 44.2406C49.0628 45.1933 49.4724 46.0831 50.0028 46.8735C50.5332 47.6638 51.2002 48.3704 51.9669 48.9514C52.7337 49.5324 53.6264 49.9983 54.6032 50.3176C54.8448 50.1815 55.0811 50.0349 55.3122 49.8779C55.5433 49.7209 55.7743 49.5638 55.9949 49.3911C56.2155 49.2184 56.436 49.0457 56.6514 48.8572C56.8667 48.6688 57.0767 48.4804 57.2763 48.2815" fill="#18181B"/>
<path d="M63.9514 53.2543C67.1654 47.0204 69.3133 40.195 70.2743 33.5109C70.3058 33.3067 70.3321 33.0974 70.3583 32.8932C70.5474 31.4538 70.684 30.0196 70.7627 28.6064C70.7837 28.2086 70.7995 27.816 70.8152 27.4235C70.8362 26.8163 70.8467 26.2091 70.8415 25.6072C70.8363 23.2309 70.6577 20.9121 70.3111 18.6928C70.2796 18.5096 70.2533 18.3264 70.2218 18.138C70.0328 17.0388 69.8017 15.9605 69.5233 14.9189C69.2345 13.8302 68.8932 12.7781 68.4835 11.7941C68.3837 11.5481 68.2735 11.3073 68.1632 11.0718C67.9951 10.7158 67.8218 10.3704 67.6328 10.0302C67.5697 9.92024 67.5067 9.80509 67.4437 9.69517C67.3124 9.47533 67.1811 9.26073 67.0393 9.05136C66.761 8.63262 66.4617 8.23482 66.1413 7.85796C65.8997 7.57531 65.6477 7.30837 65.3851 7.05189C65.2958 6.96814 65.2065 6.88439 65.1172 6.80065C65.1067 6.79018 65.0962 6.77971 65.0805 6.76924C64.9072 6.61745 64.7339 6.46566 64.5501 6.32433C64.1614 6.02075 63.7518 5.74333 63.3159 5.49209C63.0954 5.36647 62.8748 5.24608 62.6437 5.13616C62.2079 4.9268 61.751 4.7436 61.2836 4.59704C61.126 4.5447 60.9685 4.50282 60.8057 4.45572C60.6481 4.41384 60.4853 4.37197 60.3225 4.33533C59.8341 4.22541 59.33 4.1469 58.8206 4.09979C58.3112 4.05268 57.7912 4.03174 57.2661 4.03698C57.0928 4.03698 56.9142 4.04745 56.7409 4.05268C56.2158 4.07885 55.6854 4.13643 55.1497 4.21494C54.9711 4.24111 54.7978 4.27252 54.6193 4.30392C53.8735 4.44525 53.1331 4.63891 52.3978 4.88492C51.6679 5.13093 50.9431 5.42928 50.2447 5.77997C49.5462 6.13067 48.8688 6.52847 48.2176 6.97338C47.5716 7.41828 46.9519 7.91553 46.3742 8.45989C46.1904 8.61169 46.0066 8.77395 45.8281 8.95191C45.7703 9.00949 45.7073 9.0723 45.6495 9.13511C45.471 9.31831 45.2977 9.5172 45.1191 9.72657C45.0613 9.79462 45.0036 9.8679 44.9458 9.93594C44.8303 10.0773 44.7147 10.2238 44.6045 10.3756C44.5467 10.4489 44.4942 10.5274 44.4364 10.6059C44.3261 10.7629 44.2106 10.92 44.1003 11.0822C43.99 11.2445 43.8797 11.4068 43.7695 11.5795C43.7169 11.6632 43.6592 11.747 43.6067 11.836C43.3913 12.1762 43.176 12.5269 42.966 12.888C42.4355 13.7831 41.9261 14.72 41.4167 15.636C41.3169 15.8192 41.2119 16.0024 41.1121 16.1856C40.5082 17.2743 39.9095 18.3212 39.3056 19.2162C39.106 19.5146 38.9012 19.7972 38.7016 20.0589C38.6019 20.1898 38.4968 20.3154 38.3971 20.4358C38.2973 20.5562 38.1922 20.6713 38.0925 20.7812C37.9927 20.8912 37.8876 20.9906 37.7826 21.0901C37.7301 21.1372 37.6776 21.1843 37.6303 21.2314C37.5253 21.3204 37.4255 21.4041 37.3205 21.4774C36.9581 21.7391 36.5852 21.9171 36.2071 21.9799C36.0653 22.0061 35.9288 22.0113 35.787 22.0061C35.6452 22.0008 35.5034 21.9746 35.3616 21.938C35.0728 21.8595 34.7839 21.7129 34.4846 21.4879C34.1853 21.2628 33.8859 20.9644 33.5761 20.5876C33.3818 20.352 33.1875 20.0799 32.9931 19.7763C32.8724 19.5931 32.7568 19.3994 32.636 19.19C32.2422 18.5515 31.8693 17.8763 31.4859 17.1958C31.1078 16.5206 30.7192 15.8401 30.2991 15.1859C29.8789 14.5368 29.4326 13.9192 28.9284 13.3696C28.7393 13.1655 28.545 12.9666 28.3402 12.7781C28.1354 12.5897 27.9201 12.417 27.6943 12.2495C27.542 12.1395 27.3897 12.0349 27.2321 11.9406C26.728 11.6266 26.1871 11.3701 25.6146 11.1765C25.4728 11.1293 25.3258 11.0822 25.1788 11.0404C24.7376 10.9147 24.286 10.8205 23.8186 10.7577C23.1989 10.674 22.5582 10.6478 21.907 10.6687C21.2558 10.6949 20.5941 10.7682 19.9271 10.8938C19.1236 11.0456 18.3096 11.2707 17.5114 11.5638C17.3118 11.6371 17.1123 11.7156 16.9127 11.7941C16.3193 12.0401 15.7311 12.3227 15.1587 12.642C14.7806 12.8566 14.4024 13.0869 14.0348 13.3277C13.6672 13.5737 13.3101 13.8354 12.9635 14.1128C12.7902 14.2489 12.6169 14.3903 12.4489 14.5368C12.1127 14.8299 11.7871 15.1335 11.4721 15.458C11.3145 15.6203 11.1622 15.7826 11.0099 15.9501C9.676 17.468 8.59942 19.1011 7.7224 20.8126C6.84538 22.5242 6.16267 24.3143 5.62701 26.1411C5.09135 27.9731 4.69747 29.8469 4.39813 31.7208C4.09879 33.5946 3.88873 35.4632 3.71542 37.2952C3.3163 41.9589 3.59989 46.7691 4.55568 51.3648C5.53248 56.0546 7.213 60.5351 9.59723 64.4032C12.0235 68.3446 15.1797 71.6578 19.0606 73.9086C21.5289 75.3427 24.2912 76.3477 27.3319 76.8083C27.9411 76.9025 28.5608 76.9706 29.191 77.0177C29.6636 77.0543 30.1468 77.0753 30.6299 77.0857C31.4387 77.1014 32.2684 77.0857 33.1139 77.0281C33.1612 77.0281 33.2085 77.0229 33.2505 77.0177C33.2977 77.0177 33.345 77.0072 33.3923 77.0072C33.4395 77.0072 33.4868 76.9967 33.5341 76.9915C33.5813 76.9915 33.6286 76.981 33.6706 76.9758C35.099 76.8345 36.5012 76.5937 37.8719 76.2587C39.0483 75.9708 40.1984 75.6149 41.3274 75.1909C41.7056 75.0496 42.0784 74.9031 42.446 74.746C45.597 73.427 48.5484 71.6003 51.274 69.3652C56.4258 65.1412 60.7059 59.5249 63.9356 53.2543H63.9514ZM32.9301 43.4035C32.8829 44.3405 32.7411 45.2826 32.5047 46.2091C32.2684 47.1408 31.9376 48.0568 31.528 48.9413C31.1131 49.8312 30.6142 50.6896 30.0365 51.5009C29.4588 52.3122 28.8076 53.0816 28.0829 53.7882C27.6785 54.186 27.2531 54.5577 26.8173 54.9083C26.3761 55.259 25.9245 55.5783 25.4571 55.8714C24.9897 56.1646 24.5118 56.4315 24.0287 56.667C23.5455 56.9026 23.0519 57.1067 22.5529 57.2847C22.3376 57.358 22.1276 57.4312 21.9123 57.494C21.6969 57.5569 21.4816 57.6144 21.2611 57.6668C21.0457 57.7191 20.8252 57.7662 20.6046 57.8029C20.384 57.8447 20.1687 57.8761 19.9482 57.9023C18.2781 58.1117 16.7132 57.9494 15.3215 57.4783C13.9351 57.0125 12.7167 56.2378 11.7294 55.2224C10.7421 54.2122 9.98059 52.9664 9.49745 51.5427C9.01955 50.1243 8.81474 48.5278 8.94603 46.8162C9.07732 45.1099 9.5237 43.4402 10.2222 41.8856C10.9154 40.331 11.8659 38.8864 12.995 37.6197C14.1241 36.353 15.4423 35.2643 16.8812 34.4268C18.3202 33.5894 19.8904 33.0031 21.5131 32.7414C21.7232 32.71 21.9385 32.6786 22.1486 32.6577C22.3586 32.6367 22.5687 32.621 22.7788 32.6106C22.9888 32.6001 23.1989 32.5949 23.4037 32.6001C23.6138 32.6001 23.8186 32.6106 24.0234 32.6263C24.4908 32.6525 24.9529 32.7153 25.4046 32.8095C25.8562 32.9037 26.2973 33.0241 26.728 33.1811C27.1586 33.3381 27.5735 33.5213 27.9674 33.7359C28.3665 33.9505 28.7498 34.1965 29.1122 34.4687C29.7582 34.9503 30.3306 35.5156 30.819 36.1489C31.3126 36.7822 31.7275 37.4889 32.0531 38.2478C32.384 39.012 32.6255 39.8286 32.7726 40.6922C32.9196 41.5559 32.9774 42.4614 32.9301 43.3983M50.0294 54.1389C48.2176 54.364 46.5108 54.207 44.9773 53.7306C43.4543 53.2543 42.0994 52.464 40.9808 51.4171C39.8728 50.3807 38.9957 49.0931 38.4181 47.6223C37.8404 46.1567 37.562 44.5132 37.6356 42.7388C37.7091 40.9749 38.1292 39.2476 38.8277 37.6302C39.5209 36.0181 40.4924 34.5158 41.6741 33.202C42.8504 31.883 44.2421 30.7524 45.7703 29.8731C47.3038 28.9937 48.9843 28.3761 50.7383 28.0987C50.9694 28.062 51.1952 28.0306 51.4263 28.0097C51.6574 27.9835 51.8832 27.9678 52.109 27.9521C52.3348 27.9417 52.5659 27.9364 52.7865 27.9364C53.0123 27.9364 53.2381 27.9417 53.4587 27.9574C53.9681 27.9835 54.4775 28.0411 54.9711 28.1353C55.4648 28.2295 55.9532 28.3552 56.4258 28.5122C56.8985 28.6692 57.3554 28.8576 57.7965 29.0775C58.2376 29.2973 58.663 29.5486 59.0674 29.8312C59.7869 30.3232 60.4328 30.9042 60.9947 31.5585C61.5566 32.2128 62.0345 32.9351 62.4232 33.7202C62.8118 34.5054 63.1059 35.3533 63.3054 36.2431C63.4997 37.1382 63.5995 38.0751 63.589 39.0434C63.5785 40.017 63.4577 40.9906 63.2372 41.9537C63.0166 42.9168 62.6963 43.8694 62.2814 44.7906C61.8665 45.7118 61.3571 46.6069 60.7637 47.4496C60.1702 48.2975 59.4875 49.0931 58.726 49.8312C58.3007 50.2447 57.8543 50.6372 57.3921 50.9984C56.93 51.3595 56.4468 51.6998 55.9479 52.0086C55.4543 52.3174 54.9449 52.5948 54.425 52.8408C53.9051 53.0868 53.3746 53.3067 52.839 53.4846C52.6079 53.5631 52.3821 53.6364 52.1458 53.7045C51.9147 53.7725 51.6784 53.8353 51.4421 53.8877C51.2057 53.9452 50.9694 53.9924 50.7331 54.0342C50.4968 54.0761 50.2604 54.1127 50.0241 54.1441" fill="white"/>
<path d="M30.8138 36.1591C30.3201 35.5258 29.7477 34.9605 29.107 34.4789C28.7446 34.2067 28.3613 33.9607 27.9621 33.7461C27.563 33.5315 27.1481 33.3431 26.7228 33.1913C26.2974 33.0343 25.851 32.9139 25.3993 32.8197C24.9477 32.7254 24.4856 32.6679 24.0182 32.6365C23.8134 32.6208 23.6085 32.6155 23.3985 32.6103C23.1937 32.6103 22.9836 32.6103 22.7735 32.6208C22.5635 32.6312 22.3534 32.6469 22.1433 32.6679C21.9333 32.6888 21.7232 32.7202 21.5079 32.7516C19.8799 33.0081 18.3149 33.5996 16.876 34.437C15.437 35.2745 14.1189 36.3632 12.9898 37.6299C11.8607 38.8966 10.9154 40.3412 10.2169 41.8958C9.51848 43.4504 9.07209 45.1201 8.9408 46.8264C8.80951 48.538 9.01433 50.1345 9.49222 51.5529C9.97537 52.9766 10.7369 54.2224 11.7189 55.2326C12.7115 56.248 13.9298 57.0175 15.311 57.4885C16.7027 57.9596 18.2677 58.1219 19.9377 57.9125C20.153 57.8863 20.3736 57.8497 20.5941 57.8131C20.8147 57.7712 21.03 57.7293 21.2506 57.677C21.4659 57.6246 21.6865 57.567 21.9018 57.5042C22.1171 57.4414 22.3324 57.3734 22.5425 57.2949C23.0414 57.1221 23.535 56.918 24.0182 56.6772C24.5013 56.4417 24.9792 56.1747 25.4466 55.8816C25.914 55.5885 26.3656 55.264 26.8068 54.9185C27.2479 54.5678 27.668 54.1962 28.0724 53.7984C28.7971 53.0918 29.4483 52.3276 30.026 51.5111C30.6037 50.6998 31.1026 49.8413 31.5175 48.9515C31.9323 48.0617 32.2579 47.1457 32.4943 46.2193C32.7306 45.2928 32.8724 44.3506 32.9196 43.4137C32.9669 42.4768 32.9091 41.5713 32.7621 40.7076C32.6151 39.844 32.3735 39.0274 32.0426 38.2632C31.717 37.5043 31.3022 36.7977 30.8085 36.1643L30.8138 36.1591ZM31.2969 43.6388C31.2549 44.4501 31.1289 45.2666 30.924 46.0675C30.7192 46.8735 30.4356 47.6639 30.0785 48.4333C29.7214 49.2028 29.2908 49.946 28.7919 50.6474C28.293 51.3488 27.7258 52.0135 27.1009 52.6259C26.8908 52.8353 26.6755 53.0342 26.4549 53.2226C26.2344 53.4163 26.0085 53.5995 25.7775 53.7722C25.5464 53.945 25.3153 54.1125 25.0737 54.2747C24.8374 54.4318 24.5958 54.5835 24.349 54.7249L24.2545 54.7824L24.1652 54.751C23.9604 54.683 23.7608 54.6045 23.5665 54.5207C23.3722 54.437 23.1832 54.348 22.9941 54.2486C22.8103 54.1543 22.6265 54.0497 22.4532 53.9397C22.2799 53.8298 22.1066 53.7147 21.9438 53.5943C21.7967 53.6466 21.6549 53.6937 21.5079 53.7356C21.3609 53.7775 21.2138 53.8193 21.0668 53.856C20.9197 53.8926 20.7727 53.924 20.6256 53.9502C20.4786 53.9764 20.3315 54.0025 20.1845 54.0182C19.0239 54.17 17.9316 54.0654 16.96 53.7408C15.9885 53.4215 15.1377 52.8877 14.4392 52.1863C13.746 51.4849 13.2051 50.6212 12.8638 49.6267C12.5224 48.6375 12.3754 47.5226 12.4594 46.3239C12.5434 45.1253 12.8533 43.9581 13.3417 42.8641C13.8301 41.7702 14.4918 40.7547 15.2847 39.8649C16.0777 38.9751 17.0073 38.2109 18.0156 37.6247C19.0291 37.0384 20.1267 36.6302 21.2663 36.4522C21.4081 36.4313 21.5552 36.4103 21.697 36.3999C21.8388 36.3842 21.9805 36.3737 22.1223 36.3685C22.2641 36.3632 22.4059 36.358 22.5477 36.3632C22.6895 36.3685 22.8313 36.3685 22.9679 36.3789C23.1464 36.2167 23.3302 36.0544 23.514 35.9026C23.7031 35.7456 23.8921 35.599 24.0864 35.4525C24.2808 35.3059 24.4803 35.1646 24.6851 35.0337C24.8899 34.8976 25.0948 34.7668 25.3048 34.6464L25.3941 34.5888L25.4834 34.615C25.7092 34.683 25.935 34.7616 26.1503 34.8505C26.3709 34.9395 26.581 35.0337 26.791 35.1437C27.0011 35.2483 27.2059 35.3687 27.4055 35.4891C27.605 35.6147 27.7993 35.7508 27.9884 35.8921C28.5503 36.3161 29.044 36.8029 29.4693 37.3577C29.8947 37.9073 30.2518 38.5197 30.5354 39.1792C30.819 39.8387 31.0238 40.5506 31.1499 41.2991C31.2759 42.0476 31.3232 42.8327 31.2811 43.644" fill="#18181B"/>
<path d="M19.24 50.1448C19.5393 50.841 19.9174 51.4848 20.3691 52.0606C20.8207 52.6416 21.3511 53.1545 21.9498 53.5942C22.1126 53.7146 22.2859 53.8297 22.4592 53.9396C22.6325 54.0496 22.8163 54.1542 23.0001 54.2485C23.1839 54.3427 23.373 54.4369 23.5725 54.5206C23.7669 54.6044 23.9664 54.6829 24.1712 54.7509L24.2605 54.7823L24.355 54.7248C24.6019 54.5834 24.8434 54.4317 25.0798 54.2746C25.3161 54.1176 25.5524 53.9501 25.7835 53.7721C26.0145 53.5994 26.2404 53.411 26.4609 53.2225C26.6815 53.0289 26.8968 52.83 27.1069 52.6258C27.7318 52.0134 28.299 51.3539 28.7979 50.6473C29.2968 49.9459 29.7274 49.2027 30.0845 48.4332C30.4416 47.6638 30.7252 46.8734 30.93 46.0674C31.1349 45.2665 31.2609 44.45 31.3029 43.6387C31.3449 42.8274 31.2977 42.0423 31.1716 41.2938C31.0456 40.5453 30.8355 39.8387 30.5572 39.1739C30.2736 38.5144 29.9165 37.902 29.4911 37.3524C29.0657 36.8028 28.5721 36.3108 28.0102 35.8868C27.8211 35.7455 27.6268 35.6094 27.4272 35.4838C27.2277 35.3582 27.0228 35.243 26.8128 35.1383C26.6027 35.0336 26.3874 34.9342 26.1721 34.8452C25.9515 34.7562 25.731 34.6777 25.5051 34.6097L25.4159 34.5835L25.3266 34.6411C25.1165 34.7667 24.9117 34.8923 24.7069 35.0284C24.5021 35.1645 24.3078 35.3058 24.1082 35.4471C23.9139 35.5937 23.7248 35.7403 23.5358 35.8973C23.3467 36.0543 23.1682 36.2113 22.9896 36.3736C22.3437 36.9703 21.7502 37.6246 21.2303 38.3207C20.7052 39.0169 20.243 39.7654 19.8597 40.54C19.471 41.3147 19.1612 42.1208 18.9301 42.9478C18.699 43.7748 18.552 44.6175 18.4995 45.4654C18.447 46.3134 18.4837 47.1352 18.6098 47.9203C18.7358 48.7054 18.9511 49.4487 19.2505 50.1448H19.24ZM18.9354 45.4026C19.0036 44.3767 19.2085 43.356 19.5393 42.3668C19.8702 41.3827 20.3218 40.4249 20.8837 39.5351C21.4404 38.64 22.1073 37.8078 22.8636 37.0593C23.6198 36.3108 24.4653 35.646 25.3791 35.0965C25.5892 35.1593 25.794 35.2378 25.9935 35.3163C26.1931 35.4 26.3927 35.489 26.5817 35.5885C26.776 35.6879 26.9598 35.7978 27.1436 35.913C27.3274 36.0281 27.506 36.1538 27.6793 36.2846C28.215 36.6877 28.6876 37.1587 29.092 37.6874C29.5016 38.216 29.843 38.8023 30.1108 39.4356C30.3786 40.069 30.5782 40.7494 30.699 41.4613C30.8198 42.1783 30.8618 42.9268 30.825 43.7015C30.7883 44.4762 30.6675 45.2561 30.4679 46.0255C30.2736 46.7949 30.0005 47.5539 29.6539 48.2867C29.3126 49.0195 28.8977 49.7313 28.4198 50.4013C27.9419 51.0713 27.401 51.7099 26.8023 52.2909C26.608 52.4845 26.4084 52.6677 26.2036 52.8457C25.9988 53.0236 25.794 53.1911 25.5839 53.3534C25.3738 53.5157 25.1585 53.6727 24.938 53.8193C24.7174 53.9658 24.4968 54.1071 24.271 54.238C23.3835 53.9292 22.5852 53.4738 21.8973 52.9085C21.2093 52.3432 20.6264 51.6628 20.1642 50.8881C19.7021 50.1187 19.3608 49.2602 19.1507 48.3338C18.9406 47.4126 18.8618 46.4233 18.9249 45.3974" fill="#18181B"/>
<path d="M69.8065 5.64386L76.8227 14.542C77.2008 15.0236 77.5579 15.5365 77.894 16.0861C78.2301 16.6357 78.5452 17.2167 78.8393 17.8396C79.1334 18.4625 79.4065 19.1115 79.6585 19.8024C79.9106 20.4933 80.1469 21.2209 80.357 21.9851L73.4196 13.3434C73.2043 12.553 72.968 11.7993 72.7107 11.0822C72.4533 10.3651 72.175 9.68991 71.8704 9.05134C71.5658 8.41276 71.2455 7.81083 70.8989 7.2403C70.5522 6.66977 70.1846 6.14634 69.796 5.64909L69.8065 5.64386Z" fill="#18181B"/>
<path d="M73.4243 13.3369L80.3616 21.9786C81.3437 25.4751 81.8426 29.2856 81.8899 33.2531C81.9371 37.2573 81.5222 41.4185 80.6715 45.5797C79.8155 49.7671 78.5131 53.944 76.8011 57.9429C75.0838 61.9576 72.9569 65.7838 70.4571 69.2488C69.5748 70.4736 68.6506 71.6461 67.7 72.7557C66.7495 73.8654 65.7569 74.9175 64.7381 75.9067C63.7193 76.896 62.669 77.8225 61.5871 78.6861C60.5053 79.5498 59.4025 80.3454 58.2681 81.0781C57.034 81.8737 55.7789 82.5908 54.4975 83.2189C53.2161 83.847 51.9294 84.3914 50.6165 84.8468C49.3036 85.3022 47.9855 85.6738 46.6463 85.9617C45.3072 86.2496 43.968 86.4485 42.6131 86.5584C42.5606 86.5584 42.5133 86.5689 42.4608 86.5689C42.4083 86.5689 42.361 86.5741 42.3085 86.5793C42.256 86.5845 42.2087 86.5845 42.1562 86.5898C42.1037 86.595 42.0564 86.595 42.0039 86.6003L32.8556 81.2195C32.9081 81.2195 32.9606 81.209 33.0131 81.2038C33.0657 81.1985 33.1182 81.1933 33.1707 81.1933C33.2232 81.1933 33.2757 81.1828 33.3282 81.1828C33.3808 81.1828 33.4333 81.1724 33.4858 81.1671C34.8932 81.0363 36.2954 80.8164 37.6871 80.5076C39.0787 80.1988 40.4652 79.7958 41.8306 79.309C43.196 78.8222 44.5562 78.2412 45.8901 77.5712C47.224 76.9012 48.5421 76.1423 49.8393 75.2996C51.0262 74.5249 52.192 73.677 53.3211 72.7662C54.4502 71.8555 55.5583 70.8714 56.6349 69.8246C57.7115 68.7777 58.7513 67.6681 59.7543 66.4956C60.7574 65.3232 61.7342 64.0879 62.6637 62.8003C65.3053 59.152 67.5582 55.1269 69.391 50.9081C71.2238 46.6893 72.605 42.3292 73.5398 37.943C74.4641 33.5881 74.9315 29.2437 74.9157 25.0615C74.9 20.9265 74.4116 16.9642 73.419 13.3317L73.4243 13.3369Z" fill="#18181B"/>
</svg>
